<svg width="24" height="24" viewBox="0 0 24 24" fill="none" xmlns="http://www.w3.org/2000/svg">
<path d="M21.6347 4.83219C21.6347 4.56695 21.5293 4.31259 21.3418 4.12509C21.1543 3.93759 20.8999 3.83219 20.6347 3.83219L18.5423 3.83219C18.3266 3.09281 17.8768 2.44337 17.2607 1.98125C16.6445 1.51915 15.895 1.26929 15.1249 1.26929C14.3547 1.26929 13.6052 1.51913 12.9891 1.98125C12.3729 2.44335 11.9231 3.09281 11.7074 3.83219L3.36502 3.83219C3.00776 3.83219 2.67759 4.02281 2.49899 4.33219C2.32032 4.64157 2.32032 5.02281 2.49899 5.33219C2.67759 5.64157 3.00776 5.83219 3.36502 5.83219L11.7074 5.83219C11.9231 6.57157 12.3729 7.22101 12.9891 7.68313C13.6052 8.14523 14.3547 8.39509 15.1249 8.39509C15.895 8.39509 16.6445 8.14525 17.2607 7.68313C17.8768 7.22103 18.3266 6.57157 18.5423 5.83219L20.6347 5.83219C20.8999 5.83219 21.1543 5.7268 21.3418 5.53929C21.5293 5.35178 21.6347 5.09741 21.6347 4.83219ZM15.1347 6.39469C14.7203 6.39469 14.3229 6.23008 14.0299 5.93703C13.7368 5.64399 13.5722 5.24657 13.5722 4.83219C13.5722 4.41781 13.7368 4.02039 14.0299 3.72735C14.3229 3.43431 14.7203 3.26969 15.1347 3.26969C15.5491 3.26969 15.9465 3.4343 16.2395 3.72735C16.5326 4.02039 16.6972 4.41781 16.6972 4.83219C16.6972 5.24837 16.5312 5.64727 16.236 5.94063C15.9408 6.23391 15.5408 6.39735 15.1247 6.39469H15.1347ZM18.5423 20.1671H20.6347C20.992 20.1671 21.3221 19.9765 21.5007 19.6671C21.6794 19.3577 21.6794 18.9765 21.5007 18.6671C21.3221 18.3577 20.992 18.1671 20.6347 18.1671H18.5423C18.3266 17.4277 17.8768 16.7783 17.2607 16.3161C16.6445 15.854 15.895 15.6042 15.1249 15.6042C14.3547 15.6042 13.6052 15.854 12.9891 16.3161C12.3729 16.7782 11.9231 17.4277 11.7074 18.1671H3.36502C3.00775 18.1671 2.67759 18.3577 2.49899 18.6671C2.32032 18.9765 2.32032 19.3577 2.49899 19.6671C2.67759 19.9765 3.00775 20.1671 3.36501 20.1671L11.7074 20.1671C11.9231 20.9065 12.3729 21.5559 12.9891 22.018C13.6052 22.4801 14.3547 22.73 15.1249 22.73C15.895 22.73 16.6445 22.4801 17.2607 22.018C17.8768 21.5559 18.3266 20.9065 18.5423 20.1671ZM13.5623 19.1671C13.5623 18.7527 13.7269 18.3553 14.02 18.0622C14.313 17.7692 14.7104 17.6046 15.1248 17.6046C15.5392 17.6046 15.9366 17.7692 16.2296 18.0622C16.5227 18.3553 16.6873 18.7527 16.6873 19.1671C16.6873 19.5815 16.5227 19.9789 16.2296 20.2719C15.9366 20.565 15.5392 20.7296 15.1248 20.7296C14.7104 20.7296 14.313 20.565 14.02 20.2719C13.7269 19.9789 13.5623 19.5815 13.5623 19.1671ZM21.6347 11.9995C21.6347 11.7342 21.5293 11.4799 21.3418 11.2924C21.1543 11.1049 20.8999 10.9995 20.6347 10.9995L12.2923 10.9995C12.0766 10.2601 11.6268 9.61067 11.0107 9.14855C10.3945 8.68645 9.64504 8.43659 8.87486 8.43659C8.10468 8.43659 7.35518 8.68643 6.73906 9.14855C6.12288 9.61065 5.67312 10.2601 5.45742 10.9995H3.36502C3.00776 10.9995 2.67759 11.1901 2.49899 11.4995C2.32032 11.8089 2.32032 12.1901 2.49899 12.4995C2.67759 12.8089 3.00776 12.9995 3.36502 12.9995H5.45742C5.67312 13.7389 6.12288 14.3883 6.73906 14.8504C7.35524 15.3125 8.10468 15.5624 8.87486 15.5624C9.64504 15.5624 10.3945 15.3125 11.0107 14.8504C11.6268 14.3883 12.0766 13.7389 12.2923 12.9995L20.6347 12.9995C20.8999 12.9995 21.1543 12.8941 21.3418 12.7066C21.5293 12.5191 21.6347 12.2647 21.6347 11.9995ZM8.8847 13.562C8.4697 13.5646 8.07072 13.4021 7.7758 13.1103C7.4808 12.8184 7.314 12.4212 7.3122 12.0062C7.3104 11.5912 7.47384 11.1926 7.76634 10.8982C8.05876 10.6039 8.45634 10.4379 8.87134 10.437C9.28634 10.4361 9.68462 10.6004 9.97838 10.8935C10.2721 11.1866 10.4372 11.5845 10.4372 11.9995C10.4372 12.4139 10.2726 12.8113 9.97954 13.1043C9.6865 13.3974 9.28908 13.562 8.8747 13.562L8.8847 13.562Z" fill="#383739"/>
</svg>
