<svg width="24" height="24" viewBox="0 0 24 24" fill="none" xmlns="http://www.w3.org/2000/svg">
<path d="M6.3121 16.8479C5.5921 13.7759 3.2881 11.3999 0.600098 10.6079C3.2881 9.7919 5.5921 7.41592 6.3121 4.36792C7.0321 7.43992 9.3361 9.81592 12.0241 10.6079C9.3361 11.4 7.0321 13.7759 6.3121 16.8479Z" fill="#383739"/>
<path d="M16.7521 22.6559C15.9121 19.1039 13.2001 16.3199 10.0801 15.3839C13.2001 14.4239 15.9121 11.6639 16.7281 8.08789C17.5681 11.6639 20.2561 14.4239 23.3761 15.3839C20.2801 16.3199 17.5681 19.1039 16.7521 22.6559Z" fill="#383739"/>
<path d="M13.2961 8.37592C12.8881 6.64796 11.5921 5.32792 10.0801 4.87192C11.5921 4.4159 12.8881 3.07192 13.2961 1.36792C13.704 3.09588 15.0001 4.41592 16.5121 4.87192C15 5.30388 13.7041 6.64786 13.2961 8.37592Z" fill="#383739"/>
<path d="M9.16791 21.936C8.90393 20.8081 8.03995 19.92 7.05591 19.608C8.03989 19.296 8.90387 18.432 9.16791 17.28C9.43189 18.408 10.2959 19.296 11.2799 19.608C10.2959 19.92 9.43195 20.808 9.16791 21.936Z" fill="#383739"/>
</svg>
