<svg width="24" height="24" viewBox="0 0 24 24" fill="none" xmlns="http://www.w3.org/2000/svg">
<path fill-rule="evenodd" clip-rule="evenodd" d="M19 1H5C2.79086 1 1 2.79086 1 5V19C1 21.2091 2.79086 23 5 23H19C21.2091 23 23 21.2091 23 19V5C23 2.79086 21.2091 1 19 1ZM19 3C20.1046 3 21 3.89543 21 5V19C21 20.1046 20.1046 21 19 21H5C3.89543 21 3 20.1046 3 19V5C3 3.89543 3.89543 3 5 3H19ZM12.25 7C12.8023 7 13.25 7.44772 13.25 8V10.75H16C16.5523 10.75 17 11.1977 17 11.75V12.25C17 12.8023 16.5523 13.25 16 13.25H13.25V16C13.25 16.5523 12.8023 17 12.25 17H11.75C11.1977 17 10.75 16.5523 10.75 16V13.25H8C7.44772 13.25 7 12.8023 7 12.25V11.75C7 11.1977 7.44772 10.75 8 10.75H10.75V8C10.75 7.44772 11.1977 7 11.75 7H12.25Z" fill="#EFEFEF"/>
</svg>
