<svg width="24" height="24" viewBox="0 0 24 24" fill="none" xmlns="http://www.w3.org/2000/svg">
<path fill-rule="evenodd" clip-rule="evenodd" d="M13.9629 1.00001L13.9462 1.1317C13.4607 5.14737 15.2865 7.6206 18.3624 5.49144C18.0562 5.95566 17.7956 6.42288 17.5806 6.89309C18.9436 6.15548 19.9112 5.64007 20.4833 5.34688C16.9888 8.20991 19.1845 11.9941 24 11.9941C20.8377 11.9941 19.8874 14.0465 21.4646 15.8991C21.4646 15.8991 20.648 15.6372 19.0148 15.1134C19.8785 15.7846 20.6951 16.3987 21.4646 16.9554C18.3624 15.0685 15.587 17.2892 18.3829 20.9207L18.3737 20.9089L18.1523 20.6197C17.6763 20.0189 17.1122 19.4256 16.4598 18.8396L16.1262 18.5472C16.4836 19.7818 16.7435 20.5357 16.9059 20.809C12.9265 16.4445 9.51919 19.9155 8.51158 21.5757C9.0523 18.3412 6.5755 15.9424 1.92264 18.5472C2.94649 17.9098 3.72294 17.2596 4.25199 16.5968C3.36342 16.5968 2.58697 16.8276 1.92264 17.2892C4.63964 15.4159 5.68291 11.1778 0 9.30361C1.6069 9.54922 7.01605 9.95264 6.0162 3.8426C6.68277 4.67367 7.17577 5.52885 7.49522 6.40813C7.26414 5.15221 6.88223 3.77713 6.34948 2.28291C9.49509 8.14283 13.3241 3.95617 13.9581 1.02572L13.9629 1.00001ZM10.2431 8.37863C9.79325 8.37863 9.42857 8.73742 9.42857 9.18001V15.2915C9.42857 15.4578 9.48119 15.6201 9.57913 15.7557C9.8397 16.1164 10.3482 16.2011 10.7149 15.9447L15.0858 12.889C15.1601 12.837 15.2251 12.7731 15.2779 12.6999C15.5385 12.3392 15.4525 11.8389 15.0858 11.5825L10.7149 8.52676C10.5771 8.4304 10.4122 8.37863 10.2431 8.37863Z" fill="#EFEFEF"/>
</svg>
