<svg width="24" height="24" viewBox="0 0 24 24" fill="none" xmlns="http://www.w3.org/2000/svg">
<path fill-rule="evenodd" clip-rule="evenodd" d="M20.5 2H3.5C1.84315 2 0.5 3.34315 0.5 5V19C0.5 20.6569 1.84314 22 3.5 22H20.5C22.1569 22 23.5 20.6569 23.5 19V5C23.5 3.34315 22.1569 2 20.5 2ZM2.5 5C2.5 4.44772 2.94772 4 3.5 4H20.5C21.0523 4 21.5 4.44772 21.5 5V19C21.5 19.5523 21.0523 20 20.5 20H14.0172L14.6194 14.7935L19.2207 12.7817C19.9189 12.4764 20.2049 11.6567 19.8426 10.9988L17.5566 6.84696C17.2544 6.29826 16.5018 6.1781 16.0361 6.60412L16.0164 6.62215C15.6947 6.91672 15.6334 7.3933 15.8709 7.75629L16.1112 8.12366H17.0517L17.8001 11.1863H11.9999H6.19987L6.94829 8.12366H7.88881L8.12908 7.75629C8.36658 7.3933 8.30531 6.91672 7.98357 6.62215L7.96389 6.60412C7.49821 6.1781 6.74565 6.29826 6.44342 6.84696L4.15744 10.9988C3.79514 11.6567 4.08115 12.4764 4.77934 12.7817L9.38064 14.7935L9.98278 20H3.5C2.94771 20 2.5 19.5523 2.5 19V5ZM11.9999 10.4827C13.1906 10.4827 14.1559 9.54032 14.1559 8.37771C14.1559 7.21526 13.1906 6.27273 11.9999 6.27273C10.8093 6.27273 9.84393 7.21526 9.84393 8.37771C9.84393 9.54032 10.8093 10.4827 11.9999 10.4827Z" fill="#EFEFEF"/>
</svg>
