<svg width="24" height="24" viewBox="0 0 24 24" fill="none" xmlns="http://www.w3.org/2000/svg">
<g clip-path="url(#clip0_10568_27267)">
<path fill-rule="evenodd" clip-rule="evenodd" d="M12 0C18.6462 0 24 5.35385 24 12C24 15.3231 22.6154 18.3692 20.3077 20.6769L19.6615 21.2308L18.7385 21.9692V21.8769C16.7077 23.1692 14.4 23.9077 12 23.9077C9.6 23.9077 7.2 23.1692 5.26154 21.8769V21.9692L4.33846 21.2308L3.69231 20.6769C1.38462 18.3692 0 15.3231 0 12C0 5.35385 5.35385 0 12 0ZM12 2.03077C6.46154 2.03077 2.03077 6.46154 2.03077 12C2.03077 14.6769 3.04615 17.0769 5.07692 19.0154L6.09231 18C6.18462 17.9077 6.27692 17.8385 6.36923 17.7692C6.46154 17.7 6.55385 17.6308 6.64615 17.5385C6.69231 17.4923 6.76154 17.4462 6.83077 17.4C6.9 17.3538 6.96923 17.3077 7.01538 17.2615C7.10769 17.2154 7.2 17.1462 7.29231 17.0769C7.38462 17.0077 7.47692 16.9385 7.56923 16.8923C7.66154 16.8923 7.84615 16.8 7.93846 16.7077L8.49231 16.4308C8.54936 16.3737 8.60641 16.3519 8.68525 16.3218C8.73397 16.3032 8.79102 16.2814 8.86154 16.2462C8.95385 16.2 9.06923 16.1769 9.18462 16.1538C9.3 16.1308 9.41538 16.1077 9.50769 16.0615C9.54593 16.0615 9.58416 16.0457 9.62896 16.0271C9.69231 16.0009 9.76878 15.9692 9.87692 15.9692C9.93472 15.95 9.9885 15.9307 10.0399 15.9123C10.2349 15.8424 10.3963 15.7846 10.6154 15.7846C10.7077 15.6923 10.8923 15.6923 10.9846 15.6923C11.3538 15.6 11.7231 15.6 12.0923 15.6C12.2769 15.6 12.4615 15.6231 12.6462 15.6462C12.8308 15.6692 13.0154 15.6923 13.2 15.6923C13.2462 15.6923 13.3154 15.7154 13.3846 15.7385C13.4538 15.7615 13.5231 15.7846 13.5692 15.7846C13.7077 15.8308 13.8231 15.8538 13.9385 15.8769C14.0538 15.9 14.1692 15.9231 14.3077 15.9692C14.3538 15.9692 14.4231 15.9923 14.4923 16.0154C14.5615 16.0385 14.6308 16.0615 14.6769 16.0615C14.8615 16.0615 15.1385 16.1538 15.3231 16.2462C15.3692 16.2923 15.4385 16.3154 15.5077 16.3385C15.5769 16.3615 15.6462 16.3846 15.6923 16.4308L16.2462 16.7077C16.3385 16.7077 16.5231 16.8 16.6154 16.8923C16.7077 16.9385 16.8 17.0077 16.8923 17.0769C16.9846 17.1462 17.0769 17.2154 17.1692 17.2615C17.2154 17.3077 17.2846 17.3538 17.3538 17.4C17.4231 17.4462 17.4923 17.4923 17.5385 17.5385C17.6308 17.6308 17.7231 17.7 17.8154 17.7692C17.9077 17.8385 18 17.9077 18.0923 18L18.3692 18.2769C18.6462 18.4615 18.9231 18.7385 19.1077 19.0154C20.9538 17.0769 21.9692 14.6769 21.9692 12C21.9692 6.46154 17.5385 2.03077 12 2.03077ZM16.7077 10.1538C16.7077 12.7385 14.5846 14.8615 12 14.8615C9.41539 14.8615 7.29231 12.8308 7.29231 10.2462C7.29231 7.66154 9.41539 5.53846 12 5.53846C14.5846 5.53846 16.7077 7.56923 16.7077 10.1538Z" fill="#EFEFEF"/>
</g>
<defs>
<clipPath id="clip0_10568_27267">
<rect width="24" height="24" fill="white"/>
</clipPath>
</defs>
</svg>
