<?xml version="1.0" encoding="UTF-8"?>
<svg width="24px" height="24px" viewBox="0 0 24 24" version="1.1" xmlns="http://www.w3.org/2000/svg" xmlns:xlink="http://www.w3.org/1999/xlink">
    <title>icon/bell</title>
    <g id="icon/bell" stroke="none" stroke-width="1" fill="none" fill-rule="evenodd">
        <path d="M13.2176701,0.75 C14.5151027,0.75 15.5774445,1.76044454 15.660356,3.03699394 L15.663,3.126 L15.7611733,3.17107505 C18.1228741,4.28884598 19.6888755,6.58638938 19.8811101,9.20066794 L19.8960722,9.47220501 L19.9010912,9.74578947 L19.9010912,11.5544737 C19.9010912,12.0918706 20.0653878,12.6142061 20.3670636,13.0477421 L20.486579,13.2060116 L21.8425529,14.8839678 L21.9608293,15.041117 C22.5168792,15.8374577 22.6082613,16.8447319 22.1906288,17.7030593 C21.7874414,18.5805849 20.9368676,19.1521216 19.9708581,19.2163248 L19.7884596,19.2223684 L17.03,19.222 L16.9956385,19.4175026 C16.6030184,21.3382482 14.9860736,22.7943553 13.024747,22.9799663 L12.8133272,22.9949549 L12.5995123,23 C10.5296522,23 8.74853299,21.5637923 8.25058388,19.6184347 L8.20368998,19.4154126 L8.169,19.222 L5.41056488,19.2223684 C4.50802742,19.2223684 3.69613045,18.77944 3.20227402,18.0417957 L3.10139848,17.8792721 L3.01075611,17.7080506 C2.58487691,16.8326323 2.68814542,15.8192366 3.26325465,15.0317128 L3.38455072,14.8773274 L4.73289916,13.2090808 C5.07520703,12.7716874 5.27350397,12.2760395 5.31334394,11.7521833 L5.32082804,11.5544737 L5.32082804,9.74578947 C5.32082804,6.93138503 6.93565996,4.38989181 9.45913003,3.17393433 L9.558,3.128 L9.56156324,3.03699394 C9.63740838,1.86924137 10.5328498,0.924167768 11.6781029,0.771557868 L11.8433483,0.755208888 L12.0042491,0.75 L13.2176701,0.75 Z M14.699,19.222 L10.499,19.222 L10.5065985,19.2431776 C10.8026071,20.0687837 11.5584693,20.6636485 12.4340258,20.7307758 L12.5995123,20.7371053 C13.4887018,20.7371053 14.279457,20.1908055 14.6316185,19.3952022 L14.699,19.222 Z M13.1718807,3.03578947 L11.9584596,3.03578947 C11.8857587,3.03578947 11.8109792,3.09602872 11.7839755,3.16665302 L11.7734596,3.22078947 L11.7734596,3.90763158 C11.7734596,4.4097907 11.4706849,4.84713193 11.0057508,4.99240327 C9.00387561,5.64564674 7.63490933,7.45777051 7.54287821,9.54413596 L7.5379333,9.76868421 L7.5379333,11.5773684 C7.5379333,12.6011136 7.20980282,13.6050836 6.6081778,14.4376605 L6.45210536,14.6421463 L5.09116921,16.3252469 C4.97365245,16.453447 4.9764288,16.57283 5.02967496,16.714534 C5.11247579,16.8525353 5.19361533,16.9306315 5.32516749,16.9528301 L5.41056488,16.9594737 L19.7655649,16.9594737 C19.9543422,16.9594737 20.0872665,16.8539161 20.1464548,16.714534 C20.1988245,16.6272512 20.2016341,16.5143392 20.0929464,16.38151 L20.0290244,16.3134621 L18.6779817,14.6418324 C18.0313874,13.8391637 17.6535189,12.8521995 17.5992113,11.8328048 L17.592407,11.5773684 L17.592407,9.76868421 C17.592407,7.58868608 16.1979602,5.66897686 14.1092962,4.98685601 C13.701022,4.82354635 13.4132335,4.46317825 13.3642825,4.03724651 L13.3568807,3.90763158 L13.3568807,3.22078947 C13.3568807,3.12991329 13.2627569,3.03578947 13.1718807,3.03578947 Z" id="Shape" fill="#FFFFFF" transform="translate(12.600294, 11.875000) rotate(20.000000) translate(-12.600294, -11.875000) "></path>
    </g>
</svg>