<?xml version="1.0" encoding="UTF-8"?>
<svg width="24px" height="24px" viewBox="0 0 24 24" version="1.1" xmlns="http://www.w3.org/2000/svg" xmlns:xlink="http://www.w3.org/1999/xlink">
    <title>icon/blog</title>
    <g id="icon/blog" stroke="none" stroke-width="1" fill="none" fill-rule="evenodd">
        <path d="M20,0 C22.209139,0 24,1.790861 24,4 L24,20 C24,22.209139 22.209139,24 20,24 L4,24 C1.790861,24 0,22.209139 0,20 L0,4 C0,1.790861 1.790861,0 4,0 L20,0 Z M20,2 L4,2 C2.9456382,2 2.08183488,2.81587779 2.00548574,3.85073766 L2,4 L2,20 C2,21.0543618 2.81587779,21.9181651 3.85073766,21.9945143 L4,22 L20,22 C21.0543618,22 21.9181651,21.1841222 21.9945143,20.1492623 L22,20 L22,4 C22,2.9456382 21.1841222,2.08183488 20.1492623,2.00548574 L20,2 Z M16.5,19 C16.7761424,19 17,19.2238576 17,19.5 C17,19.7761424 16.7761424,20 16.5,20 L4.5,20 C4.22385763,20 4,19.7761424 4,19.5 C4,19.2238576 4.22385763,19 4.5,19 L16.5,19 Z M19.5,17 C19.7761424,17 20,17.2238576 20,17.5 C20,17.7761424 19.7761424,18 19.5,18 L4.5,18 C4.22385763,18 4,17.7761424 4,17.5 C4,17.2238576 4.22385763,17 4.5,17 L19.5,17 Z M19,8 C19.5522847,8 20,8.39175084 20,8.875 L20,14.125 C20,14.6082492 19.5522847,15 19,15 L5,15 C4.44771525,15 4,14.6082492 4,14.125 L4,8.875 C4,8.39175084 4.44771525,8 5,8 L19,8 Z M5.5,4 C6.32842712,4 7,4.67157288 7,5.5 C7,6.32842712 6.32842712,7 5.5,7 C4.67157288,7 4,6.32842712 4,5.5 C4,4.67157288 4.67157288,4 5.5,4 Z M19,4.5 C19.5522847,4.5 20,4.94771525 20,5.5 C20,6.05228475 19.5522847,6.5 19,6.5 L9,6.5 C8.44771525,6.5 8,6.05228475 8,5.5 C8,4.94771525 8.44771525,4.5 9,4.5 L19,4.5 Z" id="Shape" fill="#FFFFFF"></path>
    </g>
</svg>