<svg width="24" height="24" viewBox="0 0 24 24" fill="none" xmlns="http://www.w3.org/2000/svg">
<path fill-rule="evenodd" clip-rule="evenodd" d="M4 1H20C22.2091 1 24 2.79086 24 5V19C24 21.2091 22.2091 23 20 23H4C1.79086 23 0 21.2091 0 19V5C0 2.79086 1.79086 1 4 1ZM4 3C2.89543 3 2 3.89543 2 5V8H22V5C22 3.89543 21.1046 3 20 3H4ZM2 19V10H22V19C22 20.1046 21.1046 21 20 21H4C2.89543 21 2 20.1046 2 19ZM5 6.5C5.55228 6.5 6 6.05228 6 5.5C6 4.94772 5.55228 4.5 5 4.5C4.44772 4.5 4 4.94772 4 5.5C4 6.05228 4.44772 6.5 5 6.5ZM9 5.5C9 6.05228 8.55229 6.5 8 6.5C7.44772 6.5 7 6.05228 7 5.5C7 4.94772 7.44772 4.5 8 4.5C8.55229 4.5 9 4.94772 9 5.5ZM11 6.5C11.5523 6.5 12 6.05228 12 5.5C12 4.94772 11.5523 4.5 11 4.5C10.4477 4.5 10 4.94772 10 5.5C10 6.05228 10.4477 6.5 11 6.5Z" fill="#FAFAFB"/>
</svg>
