<?xml version="1.0" encoding="UTF-8"?>
<svg width="24px" height="24px" viewBox="0 0 24 24" version="1.1" xmlns="http://www.w3.org/2000/svg" xmlns:xlink="http://www.w3.org/1999/xlink">
    <title>icon/camera</title>
    <g id="icon/camera" stroke="none" stroke-width="1" fill="none" fill-rule="evenodd">
        <path d="M13.8944026,3 C15.271956,3 16.4682212,3.85430589 16.9369638,5.10223233 L16.9369638,5.10223233 L18.2566946,5.10223233 C20.3207735,5.10223233 22,6.78145884 22,8.8455377 L22,8.8455377 L22,16.4963742 C22,18.5604531 20.3207735,20.2396796 18.2566946,20.2396796 L18.2566946,20.2396796 L5.74330537,20.2396796 C3.6792265,20.2396796 2,18.5604531 2,16.4963742 L2,16.4963742 L2,8.8455377 C2,6.78145884 3.6792265,5.10223233 5.74330537,5.10223233 L5.74330537,5.10223233 L7.06303616,5.10223233 C7.53177876,3.85430589 8.72828096,3 10.1058344,3 L10.1058344,3 Z M13.8939286,4.75577042 L10.1055974,4.75577042 C9.3747571,4.75577042 8.75458553,5.27854401 8.63111996,5.9989573 L8.63111996,5.9989573 L8.48371961,6.85800275 L5.74330537,6.85800275 C4.64728186,6.85800275 3.75577042,7.74951419 3.75577042,8.8455377 L3.75577042,8.8455377 L3.75577042,16.4966112 C3.75577042,17.5926347 4.64728186,18.4841462 5.74330537,18.4841462 L5.74330537,18.4841462 L18.2564577,18.4841462 C19.3524812,18.4841462 20.2439926,17.5926347 20.2439926,16.4966112 L20.2439926,16.4966112 L20.2439926,8.84577468 C20.2439926,7.74975117 19.3524812,6.85823973 18.2564577,6.85823973 L18.2564577,6.85823973 L15.5158064,6.85823973 L15.3684061,5.99919427 C15.2449405,5.27854401 14.6247689,4.75577042 13.8939286,4.75577042 L13.8939286,4.75577042 Z M12,8.5 C14.209139,8.5 16,10.290861 16,12.5 C16,14.709139 14.209139,16.5 12,16.5 C9.790861,16.5 8,14.709139 8,12.5 C8,10.290861 9.790861,8.5 12,8.5 Z M12,10.5 C10.8954305,10.5 10,11.3954305 10,12.5 C10,13.6045695 10.8954305,14.5 12,14.5 C13.1045695,14.5 14,13.6045695 14,12.5 C14,11.3954305 13.1045695,10.5 12,10.5 Z" id="Combined-Shape" fill="#FFFFFF"></path>
    </g>
</svg>