<?xml version="1.0" encoding="UTF-8"?>
<svg width="24px" height="24px" viewBox="0 0 24 24" version="1.1" xmlns="http://www.w3.org/2000/svg" xmlns:xlink="http://www.w3.org/1999/xlink">
    <title>icon/character</title>
    <g id="icon/character" stroke="none" stroke-width="1" fill="none" fill-rule="evenodd">
        <path d="M16.7107958,3.40503686 C17.2799699,2.88434874 18.199762,3.03120421 18.5691556,3.70183733 L18.5691556,3.70183733 L21.3631296,8.77628087 C21.8059377,9.58038151 21.4563745,10.5822118 20.6030353,10.9554266 L20.6030353,10.9554266 L14.9792239,13.4142774 L12.8796926,21 L10.675863,21 L8.57633167,13.4142774 L2.95252025,10.9554266 C2.09918102,10.5822118 1.74961783,9.58038151 2.192426,8.77628087 L2.192426,8.77628087 L4.98639998,3.70183733 C5.35579355,3.03120421 6.27558565,2.88434874 6.84475975,3.40503686 L6.84475975,3.40503686 L6.86880936,3.42707548 C7.26204158,3.78710825 7.33693291,4.36958689 7.0466499,4.81324283 L7.0466499,4.81324283 L6.75299151,5.26225395 L5.60346234,5.26225395 L4.68873332,9.0055237 L18.8668222,9.0055237 L17.9520932,5.26225395 L16.802564,5.26225395 L16.5089057,4.81324283 C16.2186226,4.36958689 16.293514,3.78710825 16.6867462,3.42707548 L16.6867462,3.42707548 Z M11.7777567,3 C13.232969,3 14.4128767,4.15198128 14.4128767,5.57275132 C14.4128767,6.99372733 13.232969,8.14550263 11.7777567,8.14550263 C10.3225443,8.14550263 9.1426367,6.99372733 9.1426367,5.57275132 C9.1426367,4.15198128 10.3225443,3 11.7777567,3 Z" id="Combined-Shape" fill="#FFFFFF"></path>
    </g>
</svg>