<svg width="24" height="24" viewBox="0 0 24 24" fill="none" xmlns="http://www.w3.org/2000/svg">
<path fill-rule="evenodd" clip-rule="evenodd" d="M16.998 7.53268C17.2617 7.30685 17.3766 6.95225 17.2954 6.61469C17.2142 6.27712 16.9507 6.01356 16.6131 5.93236C16.2755 5.85116 15.9209 5.96602 15.6951 6.22973L8.76452 13.1603C8.22336 13.7003 7.91924 14.4334 7.91924 15.1979C7.91924 15.9624 8.22336 16.6955 8.76452 17.2355C9.9042 18.3256 11.7 18.3256 12.8397 17.2355L19.7703 10.3049C21.0167 9.08648 21.5121 7.29213 21.0674 5.60677C20.6226 3.92141 19.3064 2.60514 17.621 2.16039C15.9356 1.71564 14.1413 2.21104 12.9229 3.45751L5.99229 10.3881C3.3359 13.0445 3.3359 17.3513 5.99229 20.0077C8.64868 22.6641 12.9555 22.6641 15.6119 20.0077L20.6943 14.9253C20.9581 14.6995 21.0729 14.3449 20.9917 14.0073C20.9105 13.6697 20.647 13.4062 20.3094 13.325C19.9718 13.2438 19.6172 13.3586 19.3914 13.6223L14.309 18.7048C12.3722 20.6416 9.23203 20.6416 7.29524 18.7048C5.35845 16.768 5.35845 13.6278 7.29524 11.691L14.2258 4.76045C14.9835 4.00278 16.0878 3.70688 17.1228 3.9842C18.1578 4.26153 18.9662 5.06996 19.2436 6.10496C19.5209 7.13996 19.225 8.24429 18.4673 9.00196L11.5367 15.9325C11.1271 16.3142 10.4888 16.3029 10.0929 15.9071C9.69705 15.5112 9.68579 14.8729 10.0675 14.4633L16.998 7.53268Z" fill="#EFEFEF"/>
</svg>
