<svg width="24" height="24" viewBox="0 0 24 24" fill="none" xmlns="http://www.w3.org/2000/svg">
<path fill-rule="evenodd" clip-rule="evenodd" d="M11.2322 21.1102L12.2882 21.1159L12.9995 21.1102L13.6837 21.093L14.3417 21.0638L14.9744 21.0219L15.5627 20.9688C21.093 20.3956 23 16.5901 23 11.1727L22.9973 10.8534L22.9792 10.2714C22.7508 5.49646 20.4791 1.92506 15.2225 1.39086L14.5687 1.33416C14.2272 1.30919 13.8713 1.28991 13.4849 1.27567L12.7349 1.25595L12.0002 1.25C11.4671 1.25 10.9636 1.25879 10.4708 1.27735L9.77711 1.31113C9.5443 1.32519 9.31792 1.34173 9.07717 1.36273L8.447 1.42664C3.40274 2.01497 1.21955 5.61908 1.01629 10.375L1.00176 10.9098L1 11.1813C1 15.8343 2.20098 19.5914 6.65411 20.6739L7.85289 24L11.2322 21.1102ZM8.97797 19.7485L10.3149 18.6052L12.2849 18.6158L12.9582 18.6104L13.5969 18.5944L14.2037 18.5675L14.7792 18.5294L15.3204 18.4805C17.4851 18.2529 18.616 17.4596 19.2946 16.4717C20.0528 15.3681 20.4988 13.6521 20.5 11.1827L20.4977 10.9027L20.4811 10.3708C20.3805 8.33024 19.8549 6.82155 19.0394 5.80895C18.2681 4.85132 17.0433 4.09234 14.9871 3.87983L14.3699 3.82631C14.0702 3.80459 13.7538 3.78741 13.4057 3.77445L12.6919 3.75568L11.9902 3.75C11.4937 3.75011 11.0293 3.75828 10.5784 3.77507L9.91362 3.80745C9.71279 3.81969 9.51807 3.83392 9.31151 3.85179L8.71906 3.91187C6.79906 4.13954 5.64229 4.89026 4.90103 5.85809C4.11164 6.88876 3.60488 8.41828 3.51482 10.4631L3.50154 10.9519L3.5 11.1892C3.50071 13.3541 3.79099 14.984 4.37755 16.1177C4.89742 17.1225 5.7113 17.8719 7.24466 18.2447L8.55038 18.5621L8.97797 19.7485Z" fill="#EFEFEF"/>
</svg>
