<svg width="24" height="24" viewBox="0 0 24 24" fill="none" xmlns="http://www.w3.org/2000/svg">
<path fill-rule="evenodd" clip-rule="evenodd" d="M19.1079 2.50002C18.076 2.49696 17.0857 2.90674 16.3576 3.63806L9.30582 10.6933C8.09378 11.8975 7.41436 13.5369 7.41924 15.2455V18.0804H10.2542C11.9616 18.0844 13.5996 17.405 14.803 16.1938L21.8616 9.142C22.9737 8.0286 23.3058 6.355 22.7032 4.9013C22.1005 3.44759 20.6816 2.49992 19.1079 2.50002ZM20.4221 7.70251L13.3703 14.7577C12.5457 15.5869 11.4236 16.0517 10.2542 16.0482H9.45146V15.2455C9.4489 14.0772 9.91354 12.9565 10.7419 12.1328L17.7971 5.07756C18.5293 4.39111 19.6741 4.40957 20.3838 5.11924C21.0935 5.82892 21.1119 6.97372 20.4255 7.7059L20.4221 7.70251ZM17.9191 23.4997H5.72574C3.66807 23.4997 2 21.8316 2 19.7739V7.5806C2 5.52292 3.66807 3.85485 5.72574 3.85485H11.145V5.88707H5.72574C4.79044 5.88707 4.03222 6.64529 4.03222 7.5806V19.7739C4.03222 20.7092 4.79044 21.4675 5.72574 21.4675H17.9191C18.8544 21.4675 19.6126 20.7092 19.6126 19.7739V14.3547H21.6448V19.7739C21.6448 21.8316 19.9768 23.4997 17.9191 23.4997Z" fill="#EFEFEF"/>
</svg>
