<svg width="24" height="24" viewBox="0 0 24 24" fill="none" xmlns="http://www.w3.org/2000/svg">
<path fill-rule="evenodd" clip-rule="evenodd" d="M2.28571 8.92857C2.28571 10.9477 3.21659 12.7494 4.67259 13.928C2.46894 15.2861 1 17.7215 1 20.5H3.57143C3.57143 17.6597 5.87396 15.3571 8.71429 15.3571C11.5546 15.3571 13.8571 17.6597 13.8571 20.5H16.4286C16.4286 17.7215 14.9596 15.2861 12.756 13.928C14.212 12.7494 15.1429 10.9477 15.1429 8.92857C15.1429 5.37817 12.2647 2.5 8.71429 2.5C5.16388 2.5 2.28571 5.37817 2.28571 8.92857ZM12.5714 8.92857C12.5714 11.0588 10.8445 12.7857 8.71429 12.7857C6.58404 12.7857 4.85714 11.0588 4.85714 8.92857C4.85714 6.79833 6.58404 5.07143 8.71429 5.07143C10.8445 5.07143 12.5714 6.79833 12.5714 8.92857ZM20 11.0776C20.4138 11.0776 20.7534 11.3955 20.788 11.8003L20.791 11.8686V13.2017H22.1241L22.1923 13.2046C22.5972 13.2392 22.915 13.5788 22.915 13.9926C22.915 14.4295 22.5609 14.7836 22.1241 14.7836H20.791L20.791 16.1167C20.791 16.5535 20.4368 16.9077 20 16.9077C19.5862 16.9077 19.2466 16.5898 19.212 16.185L19.209 16.1167V14.7836H17.8759L17.8077 14.7807C17.4028 14.7461 17.085 14.4065 17.085 13.9926C17.085 13.5558 17.4391 13.2017 17.8759 13.2017H19.209V11.8686C19.209 11.4317 19.5632 11.0776 20 11.0776Z" fill="#EFEFEF"/>
</svg>
