<?xml version="1.0" encoding="UTF-8"?>
<svg width="24px" height="24px" viewBox="0 0 24 24" version="1.1" xmlns="http://www.w3.org/2000/svg" xmlns:xlink="http://www.w3.org/1999/xlink">
    <title>icon/footprints</title>
    <g id="icon/footprints" stroke="none" stroke-width="1" fill="none" fill-rule="evenodd">
        <g id="B" transform="translate(2.508538, 1.500000)" fill="#FFFFFF">
            <g id="ol" transform="translate(0.086206, 0.000000)">
                <path d="M8.28572579,10.4942717 L8.26958703,10.630617 L7.50379432,15.481 L8.38869658,18.4008487 C8.66094862,19.29998 8.17477462,20.233916 7.3236885,20.5486606 L7.18633134,20.5931161 L7.05019127,20.6253634 L4.18619127,21.1863634 C3.27620461,21.3646115 2.39478536,20.802903 2.15956747,19.9228511 L2.12788795,19.7813114 L0.563887946,11.1583114 C0.391959581,10.2103969 1.01728585,9.31208268 1.94537708,9.12931594 L2.08679968,9.10735077 L6.34179968,8.62035077 C7.44481802,8.49410637 8.3721141,9.4100179 8.28572579,10.4942717 Z M6.54079432,10.359 L2.28579432,10.846 L3.84979432,19.469 L6.71379432,18.908 L5.7984208,15.8849154 C5.77115878,15.7948415 5.75424326,15.7022708 5.74779676,15.6089767 L5.74599411,15.4687147 L5.75998692,15.3286976 L6.54079432,10.359 Z M12.5330618,3.60993491 L12.6699633,3.62035077 L16.9249633,4.10735077 L17.0663859,4.12931594 C17.9944771,4.31208268 18.6198034,5.21039694 18.447875,6.15831144 L18.447875,6.15831144 L16.883875,14.7813114 L16.8521955,14.9228511 C16.6169776,15.802903 15.7355583,16.3646115 14.8255717,16.1863634 L14.8255717,16.1863634 L11.9615717,15.6253634 L11.8254316,15.5931161 L11.6880744,15.5486606 C10.8369883,15.233916 10.3508143,14.29998 10.6230664,13.4008487 L10.6230664,13.4008487 L11.5079686,10.481 L10.7421759,5.63061696 L10.7260371,5.49427166 C10.6396488,4.4100179 11.5669449,3.49410637 12.6699633,3.62035077 Z M12.4709686,5.359 L13.251776,10.3286976 L13.2657688,10.4687147 L13.2639662,10.6089767 C13.2575197,10.7022708 13.2406042,10.7948415 13.2133421,10.8849154 L13.2133421,10.8849154 L12.2979686,13.908 L15.1619686,14.469 L16.7259686,5.846 L12.4709686,5.359 Z M5.79243888,6.20371148 C5.82846388,6.30534087 5.84215175,6.4135432 5.83256937,6.52094203 L5.76823219,7.24202965 C5.73736814,7.58795221 5.47304921,7.86743761 5.1293846,7.91753395 L0.68584007,8.56527393 C0.363328079,8.61228683 0.0625445963,8.39243733 0.0094339066,8.07087326 C-0.0459112679,7.73578027 0.146856898,7.40919899 0.466972974,7.2957261 L4.83495839,5.74738801 C5.22536958,5.60899732 5.65404819,5.8133003 5.79243888,6.20371148 Z M7.98563914,5 C8.51031368,5 8.93564644,5.42533276 8.93564644,5.95000731 C8.93564644,5.99977906 8.93173507,6.04947384 8.92394845,6.09863272 L8.75639386,7.1564466 C8.67943966,7.64227768 8.26059543,8 7.76870745,8 L7.6227775,8 C7.11469197,8 6.70280726,7.58811529 6.70280726,7.08002976 C6.70280726,7.05447622 6.70387194,7.02893378 6.70599853,7.00346889 L6.79674878,5.91677897 C6.84002546,5.39856188 7.27325891,5 7.7932799,5 L7.98563914,5 Z M13.2193241,1.20371148 C13.3577147,0.8133003 13.7863934,0.608997322 14.1768045,0.74738801 L14.1768045,0.74738801 L18.54479,2.2957261 C18.864906,2.40919899 19.0576742,2.73578027 19.002329,3.07087326 C18.9492183,3.39243733 18.6484349,3.61228683 18.3259229,3.56527393 L18.3259229,3.56527393 L13.8823783,2.91753395 C13.5387137,2.86743761 13.2743948,2.58795221 13.2435308,2.24202965 L13.2435308,2.24202965 L13.1791936,1.52094203 C13.1696112,1.4135432 13.1832991,1.30534087 13.2193241,1.20371148 Z M11.218483,0 C11.738504,3.1757091e-16 12.1717375,0.398561882 12.2150142,0.916778972 L12.2150142,0.916778972 L12.3057644,2.00346889 C12.307891,2.02893378 12.3089557,2.05447622 12.3089557,2.08002976 C12.3089557,2.58811529 11.897071,3 11.3889854,3 L11.3889854,3 L11.2430555,3 C10.7511675,3 10.3323233,2.64227768 10.2553691,2.1564466 L10.2553691,2.1564466 L10.0878145,1.09863272 C10.0800279,1.04947384 10.0761165,0.999779056 10.0761165,0.950007306 C10.0761165,0.425332759 10.5014493,-9.63811507e-17 11.0261238,0 L11.0261238,0 Z" id="Combined-Shape"></path>
            </g>
        </g>
    </g>
</svg>