<?xml version="1.0" encoding="UTF-8"?>
<svg width="24px" height="24px" viewBox="0 0 24 24" version="1.1" xmlns="http://www.w3.org/2000/svg" xmlns:xlink="http://www.w3.org/1999/xlink">
    <title>icon/grandprix</title>
    <g id="icon/grandprix" stroke="none" stroke-width="1" fill="none" fill-rule="evenodd">
        <path d="M17,1 C18.1234313,1 19.0024472,1.916981 19.0004917,2.99951392 L21.956167,3 C22.0567659,3 22.1569969,3.01214399 22.2546849,3.03616843 C22.8831668,3.19073113 23.2826226,3.7955004 23.1942534,4.42286944 L23.1699986,4.54851788 L22.3441967,7.90638855 L15.856,15.585 L14.5787044,17.2278812 C14.5089911,17.3175126 14.4323827,17.4002987 14.3499324,17.4757243 L15.2706906,23 L8.72930937,23 L9.65006762,17.4757243 C9.56761733,17.4002987 9.49100889,17.3175126 9.42129557,17.2278812 L9.42129557,17.2278812 L8.073,15.495 L1.66226235,7.90638855 L0.836460435,4.54851788 L0.812205591,4.42286944 C0.723836443,3.7955004 1.12329225,3.19073113 1.75177412,3.03616843 C1.84946216,3.01214399 1.94969317,3 2.050292,3 L2.050292,3 L4.99950832,2.99951392 C4.99755283,1.916981 5.8765687,1 7,1 L7,1 Z M17,3 L7,3 L8.66666667,13 L9.616,14.221 L9.74656618,14.3754896 L9.74,14.38 L11,16 L13,16 L14.262,14.377 L14.2598928,14.3754896 L14.318,14.305 L15.3333333,13 L17,3 Z M12.0817567,4.5 C12.389664,5.21845031 12.9817221,5.75746622 13.1271194,6.43760311 C13.368026,7.5645467 13.0713475,7.96474877 13.0713475,8.33733434 C13.0936842,8.80354798 13.4680529,9.06013861 13.8300682,9.06013861 C14.2175713,9.06013861 14.5908804,8.76613026 14.5032627,8.12053494 C14.4963749,8.0887578 14.4883995,8.05636634 14.4790856,8.02313717 C14.7535948,8.47256869 14.9118197,9.00108004 14.9118197,9.56659026 C14.9118197,10.4907242 14.4957893,11.3241062 13.8271681,11.8590679 C13.1153515,12.4287109 12.4652466,12.5 12.2905411,12.5 C13.2566496,12.2811063 13.6278951,11.1070555 13.294435,10.4885182 C13.2855952,10.533224 13.3526888,10.8198605 13.1711513,11.1258761 C13.0205114,11.3798977 12.746309,11.5501483 12.4299709,11.5501483 C12.0117933,11.5501483 11.6629959,11.2526775 11.5828517,10.85739 C11.5717531,10.8210892 11.5655067,10.7733676 11.5655067,10.7120193 L11.5655067,10.6840677 L11.5655067,10.6840677 C11.5655067,10.4803924 11.6589246,10.2776387 11.7607082,10.125315 C11.818711,10.0317428 11.8733675,9.95810807 11.9249007,9.84859143 C11.9773262,9.7134967 12.0218601,9.56558501 12.0367512,9.40231529 C12.0384243,9.37416823 12.0395677,9.34537892 12.0395677,9.31516551 C12.0482402,9.04511567 11.979121,8.91333761 11.8764852,8.40015882 C11.4659422,9.73442367 10.8479177,9.78791329 10.5894987,10.5443935 C10.3132327,11.3530351 10.7514881,12.2771412 11.6212785,12.5 C11.5443552,12.5 11.4537851,12.4916281 11.3453803,12.4701487 L11.2342495,12.4451858 C11.2346121,12.4451858 11.2335245,12.4448228 11.2308754,12.4441247 L11.23,12.444 C11.1294081,12.420632 10.4577116,12.2359612 9.89868025,11.6930617 C9.34444715,11.154805 9,10.4034907 9,9.56659026 C9,8.13547796 9.6322758,7.48833473 10.3421696,6.85616519 L10.628952,6.60227317 C11.2055371,6.0887951 11.784467,5.51927925 12.0817567,4.5 Z M20.999,5 L18.694,4.999 L17.837,10.14 L20.514,6.973 L20.999,5 Z M5.305,4.999 L3.00836022,5 L3.49336022,6.974 L6.16,10.13 L5.305,4.999 Z" id="Combined-Shape" fill="#FFFFFF"></path>
    </g>
</svg>