<?xml version="1.0" encoding="UTF-8"?>
<svg width="24px" height="24px" viewBox="0 0 24 24" version="1.1" xmlns="http://www.w3.org/2000/svg" xmlns:xlink="http://www.w3.org/1999/xlink">
    <title>icon/history</title>
    <g id="icon/history" stroke="none" stroke-width="1" fill="none" fill-rule="evenodd">
        <path d="M9.05847446,20.3876619 C9.16264113,19.8043286 9.72514113,19.4293286 10.3084745,19.5543286 L10.3084745,19.5543286 L10.7251411,19.6168286 C11.3084745,19.7001619 11.7043078,20.2418286 11.6209745,20.8251619 C11.5584745,21.3668286 11.1001411,21.7418286 10.5793078,21.7418286 C10.5168078,21.7418286 10.4543078,21.7209952 10.4126411,21.7209952 C10.2459745,21.7001619 10.0584745,21.6793286 9.8918078,21.6376619 C9.30847446,21.5334952 8.93347446,20.9709952 9.05847446,20.3876619 Z M14.3084745,19.3043286 C14.8709745,19.1168286 15.4751411,19.4293286 15.6209745,20.0126619 C15.8084745,20.5543286 15.5168078,21.1584952 14.9543078,21.3459952 L14.9543078,21.3459952 L14.4543078,21.4918286 C14.3709745,21.5126619 14.2668078,21.5334952 14.1834745,21.5334952 C13.7251411,21.5334952 13.2876411,21.2209952 13.1626411,20.7418286 C13.0168078,20.1584952 13.3501411,19.5751619 13.9126411,19.4293286 L13.9126411,19.4293286 Z M5.55847446,18.2001619 C5.93347446,17.7418286 6.60014113,17.6793286 7.05847446,18.0334952 L7.05847446,18.0334952 L7.37097446,18.2626619 C7.85014113,18.5959952 7.9543078,19.2626619 7.62097446,19.7418286 C7.41264113,20.0543286 7.0793078,20.2001619 6.74597446,20.2001619 C6.53764113,20.2001619 6.3293078,20.1376619 6.1418078,20.0126619 L6.1418078,20.0126619 L5.72514113,19.7001619 C5.2668078,19.3251619 5.2043078,18.6584952 5.55847446,18.2001619 Z M5.2668078,4.55432855 C9.16264113,1.05432855 15.1418078,1.13766189 18.8918078,4.88766189 C22.7459745,8.76266189 22.7459745,15.0543286 18.8709745,18.9293286 C18.7668078,19.0543286 18.6418078,19.1793286 18.5168078,19.2834952 C18.3084745,19.4709952 18.0584745,19.5543286 17.8084745,19.5543286 C17.5168078,19.5543286 17.2251411,19.4293286 17.0168078,19.2001619 C16.6418078,18.7626619 16.6626411,18.0959952 17.1001411,17.7001619 L17.1001411,17.7001619 L17.3918078,17.4293286 C20.4334745,14.3876619 20.4334745,9.42932855 17.4126411,6.40849522 C14.4959745,3.49182855 9.85014113,3.40849522 6.78764113,6.07516189 L6.78764113,6.07516189 L7.93347446,7.22099522 C8.2668078,7.55432855 8.10014113,8.13766189 7.6418078,8.24182855 L7.6418078,8.24182855 L2.7668078,9.42932855 C2.30847446,9.53349522 1.91264113,9.11682855 2.0168078,8.67932855 L2.0168078,8.67932855 L3.2043078,3.80432855 C3.30847446,3.34599522 3.8918078,3.17932855 4.22514113,3.51266189 L4.22514113,3.51266189 Z M3.3918078,14.7001619 C3.93347446,14.4501619 4.55847446,14.6793286 4.80847446,15.2209952 L4.80847446,15.2209952 L4.97514113,15.5959952 C5.24597446,16.1168286 5.05847446,16.7626619 4.53764113,17.0334952 C4.37097446,17.1168286 4.2043078,17.1584952 4.03764113,17.1584952 C3.66264113,17.1584952 3.28764113,16.9501619 3.10014113,16.5959952 C3.0168078,16.4293286 2.9543078,16.2834952 2.87097446,16.1168286 C2.62097446,15.5751619 2.85014113,14.9501619 3.3918078,14.7001619 Z M11.8709745,6.36682855 C12.4543078,6.36682855 12.9334745,6.84599522 12.9334745,7.42932855 L12.9334745,7.42932855 L12.9334745,11.3043286 L15.3709745,12.8668286 C15.8501411,13.1793286 15.9959745,13.8251619 15.6834745,14.3043286 C15.4751411,14.6376619 15.1418078,14.8043286 14.7876411,14.8043286 C14.6001411,14.8043286 14.3918078,14.7418286 14.2251411,14.6376619 L14.2251411,14.6376619 L11.3084745,12.7834952 C10.9959745,12.5959952 10.8084745,12.2418286 10.8084745,11.8876619 L10.8084745,11.8876619 L10.8084745,7.42932855 C10.8084745,6.84599522 11.2876411,6.36682855 11.8709745,6.36682855 Z" id="Combined-Shape" fill="#FFFFFF"></path>
    </g>
</svg>