<svg width="48" height="48" viewBox="0 0 48 48" fill="none" xmlns="http://www.w3.org/2000/svg">
<g id="honoo">
<path id="Combined Shape" fill-rule="evenodd" clip-rule="evenodd" d="M33.1018 31.8764C35.1724 32.4618 37.3129 31.3405 38.3216 29.2314C39.3303 27.1223 39.5921 23.3861 38.6029 20.1388C40.2555 23.4315 42.1326 28.2097 41.201 33.4554C40.0352 40.02 36.3909 42.6984 33.1018 44.8799C29.8127 47.0614 22.4052 46.9559 22.4052 46.9559C22.4052 46.9559 24.2429 46.5347 25.4948 44.8799C26.9804 42.9166 26.3867 40.8131 26.1067 40.0832C26.0738 40.0025 26.039 39.9214 26.0033 39.8404L25.9937 39.8188C25.9674 39.7597 25.941 39.7004 25.9127 39.6409C25.8721 39.5556 25.8278 39.4699 25.7836 39.3845L25.7811 39.3796L25.7684 39.3551C25.7388 39.2978 25.7092 39.2406 25.6775 39.1832C25.6312 39.1 25.5807 39.0165 25.5301 38.9332L25.5184 38.9137C25.5107 38.901 25.5031 38.8883 25.4955 38.8755C25.4658 38.8259 25.4362 38.7764 25.4044 38.7268C25.3427 38.6302 25.2749 38.5338 25.2071 38.4373L25.2071 38.4373C25.1919 38.4157 25.1772 38.3941 25.1625 38.3725C25.1395 38.3388 25.1164 38.305 25.0916 38.2713C25.0027 38.1506 24.9065 38.0302 24.8087 37.9102C24.7973 37.8963 24.7866 37.8824 24.7759 37.8685C24.7632 37.8518 24.7505 37.8353 24.7367 37.8189C24.6108 37.669 24.4772 37.52 24.3363 37.3718C24.3128 37.3472 24.2878 37.3228 24.2628 37.2985C24.2456 37.2818 24.2285 37.265 24.2118 37.2483C24.1072 37.1419 24.0017 37.0355 23.8886 36.9306C23.7485 36.8 23.6032 36.6706 23.45 36.5423C23.338 36.4488 23.2291 36.3545 23.1233 36.2597C23.1018 36.2402 23.0809 36.2207 23.06 36.2011C23.0466 36.1885 23.0331 36.1759 23.0194 36.1632C23.0092 36.1539 22.999 36.1445 22.9888 36.1352C22.9324 36.0835 22.8759 36.0318 22.8217 35.9794C18.8097 31.9416 20.5311 26.0161 20.5311 26.0161C16.9 29.6507 15.6907 31.8077 15.0338 34.4893C13.2592 41.9813 19.5556 46.2213 19.5556 46.2213C14.6744 44.8799 11.1189 40.3788 11.1196 40.3789C8.34681 36.9625 6.30011 31.9613 7.63902 25.6543C8.50913 21.5554 10.5982 18.6778 13.1702 15.8573L14.0969 14.8624L14.2785 14.6757L14.6744 14.2939L15.3371 13.7008L17.3537 11.9879L18.1412 11.2916L18.6583 10.8101L19.1611 10.3138C19.4776 9.99097 19.7959 9.67432 20.114 9.35779C22.2775 7.20547 24.4353 5.05876 25.9671 0.999971C26.6012 1.97151 27.2826 2.93629 27.9662 3.90426C31.3234 8.65795 34.7351 13.4888 32.8707 19.5767C32.4974 20.6922 31.9993 21.5644 31.5134 22.4153C30.858 23.5628 30.2248 24.6715 29.9499 26.2858C29.471 29.0971 31.0312 31.2909 33.1018 31.8764ZM25.2364 17.3293C25.2364 17.3293 24.9686 20.7798 23.5692 23.9463C21.3587 28.9483 23.5692 31.6567 23.5692 31.6567C23.3928 28.6137 25.2035 26.3611 27.0497 24.0643C28.8391 21.8383 30.6618 19.5708 30.7408 16.5021C30.9011 10.2672 26.1104 5.93988 26.1104 5.93988C24.1987 9.60231 21.3197 11.9876 18.4934 14.3292C15.1441 17.1042 11.8687 19.8179 10.3643 24.5233C7.73508 32.7476 12.3808 38.0919 12.3808 38.0919C12.2267 34.714 12.2392 30.67 17.3145 26.2088C24.7002 19.7168 25.2364 17.3293 25.2364 17.3293Z" fill="url(#paint0_linear_0_339)"/>
</g>
<defs>
<linearGradient id="paint0_linear_0_339" x1="-1.21681" y1="5.2105" x2="-2.38569" y2="53.4447" gradientUnits="userSpaceOnUse">
<stop stop-color="#FFC000"/>
<stop offset="0.398137" stop-color="#FF4900"/>
<stop offset="0.736041" stop-color="#FF071F"/>
<stop offset="1" stop-color="#DB0000"/>
</linearGradient>
</defs>
</svg>
