<?xml version="1.0" encoding="UTF-8"?>
<svg width="24px" height="24px" viewBox="0 0 24 24" version="1.1" xmlns="http://www.w3.org/2000/svg" xmlns:xlink="http://www.w3.org/1999/xlink">
    <title>icon/idea</title>
    <g id="icon/idea" stroke="none" stroke-width="1" fill="none" fill-rule="evenodd">
        <path d="M12.0002947,2 C7.58411152,2.00505337 4.00534802,5.58381687 4.00014608,10 C3.98279402,12.8620252 5.51244222,15.5103396 8.00029465,16.92529 L8.00029465,18 C8.00029465,18.5522847 8.4480099,19 9.00029465,19 L15.0002947,19 C15.5525794,19 16.0002947,18.5522847 16.0002947,18 L16.0002947,16.92529 C18.4881471,15.5103396 20.0177953,12.8620252 20.0004432,10 C19.9952413,5.58381687 16.4164778,2.00505337 12.0002947,2 Z M14.4399841,15.1004319 C14.1127711,15.2552497 13.9040663,15.5847644 13.9039488,15.9467546 L13.9039488,16.5833333 L10.1603591,16.5833333 L10.1603591,15.9467546 C10.1602416,15.5847644 9.95153685,15.2552497 9.62432382,15.1004319 C7.65653783,14.1829685 6.40360946,12.203168 6.41666667,10.0320513 C6.41666667,6.93075999 8.93086266,4.41666667 12.0321539,4.41666667 C15.1334452,4.41666667 17.6476412,6.93075999 17.6476412,10.0320513 C17.6606984,12.203168 16.4077701,14.1829685 14.4399841,15.1004319 L14.4399841,15.1004319 Z M14.1669613,20 L9.83362799,20 C9.28134324,20 8.83362799,20.4477153 8.83362799,21 C8.83362799,21.5522847 9.28134324,22 9.83362799,22 L14.1669613,22 C14.7192461,22 15.1669613,21.5522847 15.1669613,21 C15.1669613,20.4477153 14.7192461,20 14.1669613,20 Z M14.4681455,8.96524724 L12.8981016,8.96524724 L13.4214496,6.37031345 C13.5522865,5.71612846 12.7018461,5.32361747 12.2875289,5.86877162 L9.12563479,10.1209741 C8.82034846,10.5352912 9.10382862,11.1458639 9.62717661,11.1458639 L11.1972206,11.1458639 L10.6738726,13.7407977 C10.5430356,14.3949827 11.3934761,14.7874936 11.8077932,14.2423395 L14.9696874,9.99013706 C15.2749737,9.55401373 14.9914935,8.96524724 14.4681455,8.96524724 Z" id="Combined-Shape" fill="#FFFFFF"></path>
    </g>
</svg>