<?xml version="1.0" encoding="UTF-8"?>
<svg width="24px" height="24px" viewBox="0 0 24 24" version="1.1" xmlns="http://www.w3.org/2000/svg" xmlns:xlink="http://www.w3.org/1999/xlink">
    <title>icon/lockPlus</title>
    <g id="icon/lockPlus" stroke="none" stroke-width="1" fill="none" fill-rule="evenodd">
        <path d="M12.0454545,0 C15.0579168,0 17.5,2.44208311 17.5,5.45454534 L17.5,9.8181817 L19.5,9.8181817 C20.1024925,9.8181817 20.5909091,10.3065983 20.5909091,10.9090908 L20.5909091,22.9090908 C20.5909091,23.5115832 20.1024925,24 19.5,24 L4.59090909,24 C3.98841664,24 3.5,23.5115832 3.5,22.9090908 L3.5,10.9090908 C3.5,10.3065983 3.98841664,9.8181817 4.59090909,9.8181817 L6.574,9.818 L6.575,5.5 L6.594,5.5 L6.59090909,5.45454534 C6.59090915,2.5155578 8.91531907,0.119465315 11.8260756,0.00433111126 Z M12,13.7001684 C11.6318102,13.7001684 11.3333333,13.9986452 11.3333333,14.366835 L11.3339054,16.3330633 L9.36683502,16.3333333 C8.99864519,16.3333333 8.70016835,16.6318102 8.70016835,17 C8.70016835,17.3488114 8.96805338,17.6350549 9.30931247,17.6642196 L9.36683502,17.6666667 L11.3331983,17.6659596 L11.3333333,19.633165 L11.3357804,19.6906875 C11.3649451,20.0319466 11.6511886,20.2998316 12,20.2998316 C12.3681898,20.2998316 12.6666667,20.0013548 12.6666667,19.633165 L12.6668017,17.6659596 L14.633165,17.6666667 C15.0013548,17.6666667 15.2998316,17.3681898 15.2998316,17 C15.2998316,16.6511886 15.0319466,16.3649451 14.6906875,16.3357804 L14.633165,16.3333333 L12.6660946,16.3330633 L12.6666667,14.366835 L12.6642196,14.3093125 C12.6350549,13.9680534 12.3488114,13.7001684 12,13.7001684 Z M12.0454545,2.18181807 C10.2379772,2.18181807 8.77272727,3.64706798 8.77272727,5.45454534 C8.77272727,5.47007176 8.77240291,5.48552241 8.77176059,5.50089091 L8.774,9.818 L15.3181818,9.8181817 L15.3181818,5.45454534 C15.3181818,3.64706798 13.8529319,2.18181807 12.0454545,2.18181807 Z" id="Combined-Shape" fill="#FFFFFF"></path>
    </g>
</svg>