<?xml version="1.0" encoding="UTF-8"?>
<svg width="24px" height="24px" viewBox="0 0 24 24" version="1.1" xmlns="http://www.w3.org/2000/svg" xmlns:xlink="http://www.w3.org/1999/xlink">
    <title>icon/manga</title>
    <g id="icon/manga" stroke="none" stroke-width="1" fill="none" fill-rule="evenodd">
        <path d="M3.25314786,12.8747227 C5.01876324,15.2759596 6.74906631,14.4990888 7.91437246,13.6515935 C7.59656169,15.8762688 9.25624015,17.041575 11.304354,16.7237642 C10.386234,18.877815 10.8806063,19.9371842 12.7521586,21.1378027 C10.3509217,20.0784334 8.90311707,21.1378027 9.78592476,23.5390396 C8.79718015,21.7381119 6.96094015,20.2903073 4.94813862,22.4090457 C4.98345093,20.5374934 3.95939401,18.3834427 0.216289401,19.6899981 C3.0059617,18.2421934 3.28846016,16.6884519 1.20503401,15.6997073 C3.60627093,16.2647042 3.99470632,14.2519027 3.25314786,12.8747227 Z M17.8701459,11.3167276 C18.3443369,11.4517518 18.84259,11.5284841 19.3462443,11.5493465 L19.3462443,11.5493465 L19.3458487,19.431168 L12.72102,19.4310149 C12.2191309,18.9915208 12.1153453,18.6069502 12.3039953,17.9569635 L12.3039953,17.9569635 L17.8710406,17.9563599 Z M6.07257543,6.15789474 L12.5860506,6.15856079 C12.7069706,6.67347886 12.9024516,7.16901835 13.1653833,7.63273197 L13.1653833,7.63273197 L7.54738357,7.63270288 L7.54708091,12.3298234 C7.39726278,12.3724783 7.24954787,12.4430533 7.10950593,12.544902 C6.71426076,12.832353 6.38013786,13.0211573 6.07255292,13.0918819 L6.07255292,13.0918819 L6.07257543,6.15789474 Z M21.2915548,1.71994936 C24.0416773,3.47636345 24.6692827,6.32259712 23.28264,8.4937465 C22.1733258,10.230666 18.8004194,10.7256861 17.0111995,9.37918582 L14.8351746,10.1428346 L15.2219795,8.03268552 C13.9895968,6.89917059 13.2314709,4.92736038 14.2965131,2.87686884 C15.6428981,0.353954486 18.9414834,0.198656632 21.2915548,1.71994936 Z" id="Combined-Shape" fill="#FFFFFF"></path>
    </g>
</svg>