<?xml version="1.0" encoding="UTF-8"?>
<svg width="24px" height="24px" viewBox="0 0 24 24" version="1.1" xmlns="http://www.w3.org/2000/svg" xmlns:xlink="http://www.w3.org/1999/xlink">
    <title>icon/motion</title>
    <g id="icon/motion" stroke="none" stroke-width="1" fill="none" fill-rule="evenodd">
        <path d="M1.41863806,20.6311726 L9.26154934,14.8330811 L11.5436922,16.9684403 L7.35912344,18.6442432 C6.94264197,18.8127015 6.70833684,19.2733552 6.83454335,19.7145293 C6.9698038,20.1869806 7.46228354,20.4602451 7.93446049,20.325259 L14.169885,18.5416319 C14.3309355,18.494716 14.489791,18.4113099 14.623954,18.2936086 C15.1128671,17.8639578 15.1608804,17.1187907 14.7312296,16.6298777 L14.6508415,16.5385151 L11.9319144,13.4453583 L15.849529,10.6954282 C15.8926038,10.6646997 15.9375992,10.6301301 15.9817714,10.5939143 L17.4789647,13.5134 C17.6433075,13.8341292 17.973365,14.0355109 18.3333279,14.0355109 L23.0397331,14.0355109 C23.5700748,14.0355109 24,13.6055857 24,13.075244 C24,12.5449023 23.5700748,12.1149771 23.0397331,12.1149771 L18.9201881,12.1149771 L17.4962495,9.33788521 C17.4616799,9.27039217 17.4194282,9.20756328 17.370043,9.14994727 L16.7283103,8.40368271 C16.7211769,8.37158236 16.7145923,8.33975637 16.7058127,8.30793038 C16.8679606,8.34990776 17.0372419,8.37460034 17.2125592,8.37460034 C18.3292124,8.37460034 19.2343326,7.46920584 19.2343326,6.35282698 C19.2343326,5.23617376 18.3292124,4.33077926 17.2125592,4.33077926 C16.095906,4.33077926 15.1907859,5.2358994 15.1907859,6.35282698 C15.1907859,6.45104857 15.2001142,6.54707526 15.2138323,6.6420045 L14.6513902,5.98792556 C14.5759407,5.90012973 14.4851269,5.82660072 14.3830642,5.77090524 L11.3538337,4.11732565 C11.1145901,3.98672935 10.8300767,3.96395731 10.5732739,4.05504548 L5.92311289,5.7012173 C5.42322538,5.87818077 5.16148406,6.42690471 5.33844753,6.92679222 C5.515411,7.42667973 6.06386058,7.68842105 6.56402245,7.51145758 L10.8100483,6.00822835 L13.1092016,7.26343436 C13.097404,7.27440884 13.084509,7.28346278 13.0727115,7.29471162 L8.62420648,11.5012293 C8.57207771,11.5503401 8.52900288,11.6057613 8.48400751,11.6598106 C8.46891761,11.6727056 8.4516328,11.6817595 8.43681725,11.6954776 L0.28442568,19.2637526 C-0.0437112364,19.5677456 -0.0980349064,20.0766871 0.17440653,20.4448808 C0.466327666,20.8399621 1.02355683,20.9233681 1.41863806,20.6311726 Z" id="Path" fill="#FFFFFF"></path>
    </g>
</svg>