<?xml version="1.0" encoding="UTF-8"?>
<svg width="24px" height="24px" viewBox="0 0 24 24" version="1.1" xmlns="http://www.w3.org/2000/svg" xmlns:xlink="http://www.w3.org/1999/xlink">
    <title>icon/multi</title>
    <g id="icon/multi" stroke="none" stroke-width="1" fill="none" fill-rule="evenodd">
        <path d="M20,6 C21.1045695,6 22,6.8954305 22,8 L22,20 C22,21.1045695 21.1045695,22 20,22 L8,22 C6.8954305,22 6,21.1045695 6,20 L18,20 C19.0543618,20 19.9181651,19.1841222 19.9945143,18.1492623 L20,18 L20,6 Z M16,2 C17.1045695,2 18,2.8954305 18,4 L18,16 C18,17.1045695 17.1045695,18 16,18 L4,18 C2.8954305,18 2,17.1045695 2,16 L2,4 C2,2.8954305 2.8954305,2 4,2 L16,2 Z" id="Combined-Shape" fill="#FFFFFF"></path>
    </g>
</svg>