<svg width="24" height="24" viewBox="0 0 24 24" fill="none" xmlns="http://www.w3.org/2000/svg">
<g clip-path="url(#clip0_46_78113)">
<path fill-rule="evenodd" clip-rule="evenodd" d="M13.4819 22.2865H10.4499H7.83986C7.69309 22.2865 7.54545 22.2845 7.39809 22.2827V19.9583H7.59184H10.0995H13.1314H15.7415C15.8874 19.9583 16.0338 19.9604 16.1803 19.9621V22.2865H15.9895H13.4819ZM5.75124 9.97949C5.74278 9.99642 5.72673 10.0142 5.71185 10.0311C5.7314 10.0063 5.75007 9.98154 5.75124 9.97949ZM9.789 6.9163C10.1899 6.21397 10.5704 5.49909 10.9346 4.77575V8.00205V10.8429C10.9346 11.0822 10.9325 11.3223 10.9314 11.5627C10.6308 11.6885 10.3589 11.879 10.1537 12.1282C9.84298 12.507 9.66645 12.9289 9.62648 13.4188C9.59526 13.8349 9.70905 14.2822 9.92293 14.6385C10.131 14.9834 10.4473 15.2909 10.8176 15.4619C11.2736 15.6729 11.7352 15.7271 12.231 15.6358C13.2169 15.4564 13.9064 14.5075 13.9207 13.5387C13.9076 12.6788 13.406 11.9432 12.6441 11.5875V11.1137V8.398V5.09847V4.60651C13.5347 6.36891 14.5043 8.09396 15.6105 9.72885C16.295 10.7425 17.0364 11.7244 17.8566 12.6339C17.7157 13.5209 17.4683 14.3969 17.2375 15.2626C16.9699 16.2588 16.688 17.2494 16.3977 18.2403H15.9895H13.4819H10.4499H7.83986C7.62189 18.2403 7.40305 18.2368 7.18363 18.235C7.07479 17.8627 6.96537 17.4904 6.85974 17.1175C6.55191 16.0262 6.24991 14.932 5.98496 13.8293C5.89188 13.4354 5.79851 13.0395 5.7314 12.6397C7.30705 10.9065 8.63206 8.94452 9.789 6.9163ZM12.0463 13.8819C12.0048 13.9073 11.9602 13.928 11.917 13.9507C11.8884 13.9589 11.8589 13.9674 11.8301 13.9741C11.7875 13.9758 11.7449 13.9758 11.7025 13.9738C11.6748 13.9671 11.6474 13.9589 11.6203 13.9507C11.5823 13.9306 11.5438 13.9125 11.5056 13.8912C11.4901 13.8775 11.475 13.8638 11.4586 13.8492C11.4472 13.8378 11.4367 13.8247 11.4259 13.8124C11.4005 13.771 11.3798 13.7266 11.3574 13.6834C11.3489 13.6546 11.3404 13.6254 11.3337 13.5965C11.332 13.5539 11.3323 13.5113 11.3343 13.4687C11.3407 13.4413 11.3489 13.4138 11.3571 13.3864C11.3772 13.3485 11.3953 13.31 11.4166 13.2717C11.4303 13.2566 11.4443 13.2414 11.4586 13.2251C11.47 13.2137 11.4831 13.2029 11.4954 13.1924C11.5368 13.167 11.5812 13.1463 11.6243 13.1238C11.6532 13.115 11.6824 13.1069 11.7116 13.1002C11.7276 13.0996 11.744 13.0978 11.76 13.0975C11.77 13.0975 11.7793 13.1002 11.7892 13.0999C11.7927 13.0996 11.7959 13.0987 11.7994 13.0984C11.8126 13.0987 11.826 13.0999 11.8391 13.1007C11.8665 13.1069 11.8943 13.115 11.9214 13.1235C11.9593 13.1433 11.9978 13.1617 12.0358 13.183C12.0512 13.1967 12.0664 13.2108 12.0827 13.2251C12.0941 13.2364 12.1046 13.2493 12.1154 13.2615C12.1408 13.3032 12.1618 13.3476 12.1843 13.3908C12.1925 13.4194 12.2009 13.4489 12.2076 13.478C12.2085 13.4982 12.2111 13.5186 12.2111 13.5387C12.2111 13.5606 12.2085 13.5831 12.2073 13.6052C12.2006 13.633 12.1928 13.6607 12.1846 13.6875C12.1642 13.7255 12.1464 13.764 12.1251 13.8022C12.1111 13.8177 12.0973 13.8328 12.0827 13.8492C12.0714 13.8606 12.0585 13.8711 12.0463 13.8819ZM19.5061 11.9782C19.467 11.8954 19.4168 11.8151 19.3489 11.7434C18.987 11.3588 18.6451 10.9599 18.3145 10.5494C18.2293 10.444 18.1464 10.3387 18.0638 10.2304C18.0807 10.2514 18.0915 10.2652 18.1029 10.2797C18.0828 10.2538 18.0612 10.2261 18.0495 10.2103C18.0098 10.1563 17.9669 10.102 17.927 10.0481C17.7589 9.8228 17.5937 9.59492 17.4312 9.36411C16.7986 8.46657 16.2145 7.53752 15.6618 6.59154C14.7555 5.03865 13.9321 3.43703 13.1799 1.8071C12.9832 1.37992 12.7895 0.949533 12.6071 0.51652C12.6231 0.55416 12.6386 0.592385 12.6547 0.630317C12.5817 0.454953 12.5076 0.314894 12.3506 0.194386C12.2844 0.143323 12.2114 0.103056 12.1344 0.0721268C12.0279 0.0228147 11.9112 -0.00461339 11.7892 0.000638792C11.7104 0.00384846 11.6351 0.0201886 11.5622 0.0420727C11.5286 0.0508263 11.4957 0.0610389 11.4644 0.0738776C11.4601 0.0756283 11.456 0.0776708 11.4516 0.0797133C11.4084 0.0983877 11.3676 0.120564 11.3288 0.145949C11.3183 0.152952 11.3083 0.159955 11.2981 0.166958C11.2745 0.184173 11.2517 0.202264 11.2301 0.221814C11.1467 0.293302 11.0778 0.379671 11.0274 0.478587C11.0198 0.492593 11.0113 0.505724 11.004 0.520021L11.002 0.524982C10.9836 0.562039 10.9664 0.599679 10.9515 0.639071C10.8768 0.83486 10.7957 1.02802 10.7157 1.22031C10.2573 2.29905 9.75603 3.35649 9.21914 4.3973C8.41264 5.95603 7.52356 7.47216 6.52331 8.91388C6.25545 9.29846 5.97913 9.67457 5.69697 10.0481C5.65991 10.0936 5.62577 10.1391 5.58872 10.1875C5.51198 10.2844 5.43494 10.3813 5.35499 10.4782C5.20706 10.6605 5.05591 10.84 4.90476 11.0168C4.74807 11.1992 4.58847 11.3786 4.42623 11.5554C4.2923 11.7008 4.14991 11.8347 4.07288 12.0226C4.01861 12.1536 3.99293 12.2905 4.00168 12.4302C4.01598 12.6724 4.05566 12.9146 4.09855 13.1539C4.30923 14.3449 4.64566 15.5162 4.96487 16.6816C5.19772 17.5278 5.42911 18.3795 5.68851 19.221V22.637V23.1415C5.68851 23.6031 6.07892 23.9961 6.54345 23.9961H7.58921H10.0965H13.1285H15.7386C16.1631 23.9961 16.5906 24.0049 17.018 23.9961H17.0353C17.4826 23.9961 17.91 23.6031 17.8899 23.1415V19.5994V19.2338C18.079 18.6024 18.2614 17.971 18.4428 17.3369C18.7734 16.1715 19.0982 15.0032 19.3631 13.8235C19.4688 13.3476 19.5969 12.8405 19.5998 12.3503C19.6007 12.2204 19.5648 12.0941 19.5061 11.9782Z" fill="#EFEFEF"/>
</g>
<defs>
<clipPath id="clip0_46_78113">
<rect width="24" height="24" fill="white"/>
</clipPath>
</defs>
</svg>
