<?xml version="1.0" encoding="UTF-8"?>
<svg width="24px" height="24px" viewBox="0 0 24 24" version="1.1" xmlns="http://www.w3.org/2000/svg" xmlns:xlink="http://www.w3.org/1999/xlink">
    <title>icon/portfolio</title>
    <g id="icon/portfolio" stroke="none" stroke-width="1" fill="none" fill-rule="evenodd">
        <g id="ol3" transform="translate(1.000000, 1.000000)" fill="#FFFFFF">
            <path d="M20.9040231,6.12590576 C21.8288888,7.05787165 22.4223454,8.31918916 22.4929147,9.71838021 L22.5,10 L22.5,17 C22.5,19.9634791 20.15622,22.3795391 17.2212071,22.4956328 L17,22.5 L10,22.5 C8.48882861,22.5 7.12000271,21.8905466 6.12590576,20.9040231 C6.40702923,20.9668964 6.69964874,21 7,21 L16.5052452,21 C18.7143842,21 21,18.8105584 21,16.6014194 L21,7 C21,6.73222558 20.973688,6.47059665 20.9235084,6.21755765 L20.9040231,6.12590576 Z M18.7502758,2.3960871 C19.6132108,3.16856191 20.1762596,4.26917638 20.2432699,5.50177797 L20.25,5.75 L20.25,15.75 C20.25,18.1642733 18.3487635,20.1344891 15.9618357,20.245102 L15.75,20.25 L5.75,20.25 C4.41786973,20.25 3.2209342,19.6711625 2.39698941,18.7512835 L15.2205882,18.75 C17.1698285,18.75 18.75,17.1698285 18.75,15.2205882 L18.7502758,2.3960871 Z M15,0 C16.6568542,0 18,1.34314575 18,3 L18,3 L18,15 C18,16.6568542 16.6568542,18 15,18 L15,18 L3,18 C1.34314575,18 0,16.6568542 0,15 L0,15 L0,3 C0,1.34314575 1.34314575,0 3,0 L3,0 Z M15,2 L3,2 C2.44771525,2 2,2.44771525 2,3 L2,3 L2,15 C2,15.5522847 2.44771525,16 3,16 L3,16 L15,16 C15.5522847,16 16,15.5522847 16,15 L16,15 L16,3 C16,2.44771525 15.5522847,2 15,2 L15,2 Z" id="Combined-Shape"></path>
        </g>
    </g>
</svg>