<?xml version="1.0" encoding="UTF-8"?>
<svg width="24px" height="24px" viewBox="0 0 24 24" version="1.1" xmlns="http://www.w3.org/2000/svg" xmlns:xlink="http://www.w3.org/1999/xlink">
    <title>icon/proP</title>
    <g id="icon/proP" stroke="none" stroke-width="1" fill="none" fill-rule="evenodd">
        <path d="M13.0875912,2 L5.32116788,2 C5.1459854,2 5,2.1459854 5,2.32116788 L5,21.649635 C5,21.8540146 5.1459854,22 5.32116788,22 L10.5766423,22 C10.7518248,22 10.8978102,21.8540146 10.8978102,21.649635 L10.8978102,16.9781022 C10.8978102,16.8029197 11.0437956,16.6277372 11.2481752,16.6277372 L13.8759124,16.6277372 C17.2627737,16.6277372 20.2116788,14.3211679 20.2116788,9.32846715 C20.2116788,5.47445255 18.1970803,2 13.0875912,2 Z M12.3460373,11.0788386 L11.0729927,11.080292 C10.9854015,11.080292 10.8978102,11.0218978 10.8978102,10.9051095 L10.8978102,7.72262774 C10.8978102,7.6350365 10.9854015,7.54741674 11.0729927,7.54741674 L12.3460373,7.55029026 C12.8592052,7.57233868 14.2846715,7.75961071 14.2846715,9.32846715 C14.2846715,10.8973236 12.8592052,11.062644 12.3460373,11.0788386 L12.3460373,11.0788386 Z" id="PRO" fill="#FFFFFF" fill-rule="nonzero"></path>
    </g>
</svg>