<svg width="24" height="24" viewBox="0 0 24 24" fill="none" xmlns="http://www.w3.org/2000/svg">
<path fill-rule="evenodd" clip-rule="evenodd" d="M23.1602 0.840006C22.9202 0.600006 22.5842 0.527966 22.2723 0.647974L1.15227 8.27997C0.840234 8.39997 0.624314 8.66395 0.600234 8.99997C0.57625 9.33599 0.720234 9.64793 1.00819 9.81599L9.28819 14.712L14.1842 22.992C14.3282 23.256 14.6162 23.4 14.9042 23.4H14.9762C15.3122 23.376 15.5762 23.16 15.6962 22.8479L23.3282 1.72791C23.4722 1.41595 23.3762 1.08001 23.1602 0.840006ZM18.281 4.12167L4.39893 9.14107L9.8125 12.25L18.281 4.12167ZM14.859 19.2223L19.8784 5.3402L11.6562 13.8125L14.859 19.2223Z" fill="#EFEFEF"/>
</svg>
