<?xml version="1.0" encoding="UTF-8"?>
<svg width="24px" height="24px" viewBox="0 0 24 24" version="1.1" xmlns="http://www.w3.org/2000/svg" xmlns:xlink="http://www.w3.org/1999/xlink">
    <title>icon/sort</title>
    <g id="icon/sort" stroke="none" stroke-width="1" fill="none" fill-rule="evenodd">
        <path d="M15.3333333,13.3333333 C16.8864772,13.3333333 18.1915229,14.3955678 18.5616123,15.8331788 L18.5616123,15.8331788 L21.5,15.8333333 C21.7761424,15.8333333 22,16.057191 22,16.3333333 L22,16.3333333 L22,17 C22,17.2761424 21.7761424,17.5 21.5,17.5 L21.5,17.5 L18.5616123,17.5001546 C18.1915229,18.9377655 16.8864772,20 15.3333333,20 C13.7801895,20 12.4751438,18.9377655 12.1050544,17.5001546 L12.1050544,17.5001546 L2.5,17.5 C2.22385763,17.5 2,17.2761424 2,17 L2,17 L2,16.3333333 C2,16.057191 2.22385763,15.8333333 2.5,15.8333333 L2.5,15.8333333 L12.1050544,15.8331788 C12.4751438,14.3955678 13.7801895,13.3333333 15.3333333,13.3333333 Z M15.3333333,15 C14.4128588,15 13.6666667,15.7461921 13.6666667,16.6666667 C13.6666667,17.5871412 14.4128588,18.3333333 15.3333333,18.3333333 C16.2538079,18.3333333 17,17.5871412 17,16.6666667 C17,15.7461921 16.2538079,15 15.3333333,15 Z M8.66666667,4 C10.2198105,4 11.5248562,5.06223451 11.8949456,6.49984542 L21.5,6.5 C21.7761424,6.5 22,6.72385763 22,7 L22,7.66666667 C22,7.94280904 21.7761424,8.16666667 21.5,8.16666667 L11.8949456,8.16682125 C11.5248562,9.60443216 10.2198105,10.6666667 8.66666667,10.6666667 C7.11352281,10.6666667 5.80847711,9.60443216 5.43838769,8.16682125 L2.5,8.16666667 C2.22385763,8.16666667 2,7.94280904 2,7.66666667 L2,7 C2,6.72385763 2.22385763,6.5 2.5,6.5 L5.43838769,6.49984542 C5.80847711,5.06223451 7.11352281,4 8.66666667,4 Z M8.66666667,5.66666667 C7.74619208,5.66666667 7,6.41285875 7,7.33333333 C7,8.25380792 7.74619208,9 8.66666667,9 C9.58714125,9 10.3333333,8.25380792 10.3333333,7.33333333 C10.3333333,6.41285875 9.58714125,5.66666667 8.66666667,5.66666667 Z" id="Combined-Shape" fill="#FFFFFF"></path>
    </g>
</svg>