<?xml version="1.0" encoding="UTF-8"?>
<svg width="24px" height="24px" viewBox="0 0 24 24" version="1.1" xmlns="http://www.w3.org/2000/svg" xmlns:xlink="http://www.w3.org/1999/xlink">
    <title>icon/sound</title>
    <g id="icon/sound" stroke="none" stroke-width="1" fill="none" fill-rule="evenodd">
        <path d="M7.30434783,0 C7.8813913,0 8.34782609,0.467478261 8.34782609,1.04347826 L8.34782609,22.9565217 C8.34782609,23.5325217 7.8813913,24 7.30434783,24 C6.72730435,24 6.26086957,23.5325217 6.26086957,22.9565217 L6.26086957,1.04347826 C6.26086957,0.467478261 6.72730435,0 7.30434783,0 Z M10.4347826,1.04347826 C11.0118261,1.04347826 11.4782609,1.51095652 11.4782609,2.08695652 L11.4782609,21.9130435 C11.4782609,22.4890435 11.0118261,22.9565217 10.4347826,22.9565217 C9.85773913,22.9565217 9.39130435,22.4890435 9.39130435,21.9130435 L9.39130435,2.08695652 C9.39130435,1.51095652 9.85773913,1.04347826 10.4347826,1.04347826 Z M16.6956522,1.04347826 C17.2726957,1.04347826 17.7391304,1.51095652 17.7391304,2.08695652 L17.7391304,21.9130435 C17.7391304,22.4890435 17.2726957,22.9565217 16.6956522,22.9565217 C16.1186087,22.9565217 15.6521739,22.4890435 15.6521739,21.9130435 L15.6521739,2.08695652 C15.6521739,1.51095652 16.1186087,1.04347826 16.6956522,1.04347826 Z M4.17391304,4.17391304 C4.75095652,4.17391304 5.2173913,4.6413913 5.2173913,5.2173913 L5.2173913,18.7826087 C5.2173913,19.3586087 4.75095652,19.826087 4.17391304,19.826087 C3.59686957,19.826087 3.13043478,19.3586087 3.13043478,18.7826087 L3.13043478,5.2173913 C3.13043478,4.6413913 3.59686957,4.17391304 4.17391304,4.17391304 Z M13.5652174,5.2173913 C14.1422609,5.2173913 14.6086957,5.68486957 14.6086957,6.26086957 L14.6086957,17.7391304 C14.6086957,18.3151304 14.1422609,18.7826087 13.5652174,18.7826087 C12.9881739,18.7826087 12.5217391,18.3151304 12.5217391,17.7391304 L12.5217391,6.26086957 C12.5217391,5.68486957 12.9881739,5.2173913 13.5652174,5.2173913 Z M19.826087,5.2173913 C20.4031304,5.2173913 20.8695652,5.68486957 20.8695652,6.26086957 L20.8695652,17.7391304 C20.8695652,18.3151304 20.4031304,18.7826087 19.826087,18.7826087 C19.2490435,18.7826087 18.7826087,18.3151304 18.7826087,17.7391304 L18.7826087,6.26086957 C18.7826087,5.68486957 19.2490435,5.2173913 19.826087,5.2173913 Z M1.04347826,8.34782609 C1.62052174,8.34782609 2.08695652,8.81530435 2.08695652,9.39130435 L2.08695652,14.6086957 C2.08695652,15.1846957 1.62052174,15.6521739 1.04347826,15.6521739 C0.466434783,15.6521739 0,15.1846957 0,14.6086957 L0,9.39130435 C0,8.81530435 0.466434783,8.34782609 1.04347826,8.34782609 Z M22.9565217,8.34782609 C23.5335652,8.34782609 24,8.81530435 24,9.39130435 L24,14.6086957 C24,15.1846957 23.5335652,15.6521739 22.9565217,15.6521739 C22.3794783,15.6521739 21.9130435,15.1846957 21.9130435,14.6086957 L21.9130435,9.39130435 C21.9130435,8.81530435 22.3794783,8.34782609 22.9565217,8.34782609 Z" id="Combined-Shape" fill="#FFFFFF"></path>
    </g>
</svg>