<?xml version="1.0" encoding="UTF-8"?>
<svg width="24px" height="24px" viewBox="0 0 24 24" version="1.1" xmlns="http://www.w3.org/2000/svg" xmlns:xlink="http://www.w3.org/1999/xlink">
    <title>icon/storyboard</title>
    <g id="icon/storyboard" stroke="none" stroke-width="1" fill="none" fill-rule="evenodd">
        <g id="ol" transform="translate(0.762974, 2.000000)" fill="#FFFFFF">
            <path d="M21.2370262,10.5 C22.0654534,10.5 22.7370262,11.1715729 22.7370262,12 L22.7370262,12 L22.7370262,20 C22.7370262,20.8284271 22.0654534,21.5 21.2370262,21.5 L21.2370262,21.5 L13.2370262,21.5 C12.4085991,21.5 11.7370262,20.8284271 11.7370262,20 L11.7370262,20 L11.7370262,12 C11.7370262,11.1715729 12.4085991,10.5 13.2370262,10.5 L13.2370262,10.5 Z M9.23702623,10.5 C10.0654534,10.5 10.7370262,11.1715729 10.7370262,12 L10.7370262,12 L10.7370262,20 C10.7370262,20.8284271 10.0654534,21.5 9.23702623,21.5 L9.23702623,21.5 L1.23702623,21.5 C0.408599106,21.5 -0.262973769,20.8284271 -0.262973769,20 L-0.262973769,20 L-0.262973769,12 C-0.262973769,11.1715729 0.408599106,10.5 1.23702623,10.5 L1.23702623,10.5 Z M21.2370262,12 L13.2370262,12 L13.2370262,20 L21.2370262,20 L21.2370262,12 Z M5.28502623,14.682 L1.23702623,17.353 L1.23702623,20 L9.23702623,20 L9.23702623,16.292 L8.31602623,15.755 L7.16810886,16.679182 L5.28502623,14.682 Z M15.1081588,14.5917184 C15.9090897,14.3200797 16.7888881,14.6686125 17.1865047,15.4150567 C17.5589226,14.7172886 18.3583943,14.3624697 19.1256829,14.5544168 C19.8929714,14.746364 20.4312025,15.4358267 20.4312025,16.2267599 C20.4312025,17.0176932 19.8929714,17.7071559 19.1256829,17.899103 C18.3583943,18.0910502 17.5589226,17.7362312 17.1865047,17.0384632 C16.8880629,17.6012279 16.3032156,17.9531534 15.6662136,17.9532855 C14.8204743,17.9550077 14.0979851,17.343837 13.9594788,16.5095145 C13.8209725,15.6751921 14.3072279,14.8633571 15.1081588,14.5917184 Z M18.7067958,15.1506582 C18.1227029,15.1506582 17.649202,15.6241591 17.649202,16.208252 C17.649202,16.792345 18.1227029,17.2658459 18.7067958,17.2658459 C19.2908888,17.2658459 19.7643896,16.792345 19.7643896,16.208252 C19.7643896,15.6241591 19.2908888,15.1506582 18.7067958,15.1506582 Z M9.23702623,12 L1.23702623,12 L1.23702623,16.156 L5.43609479,13.3845996 L7.26102623,15.32 L8.22614562,14.5454984 L9.23702623,15.135 L9.23702623,12 Z M9.23702623,-1.5 C10.0654534,-1.5 10.7370262,-0.828427125 10.7370262,0 L10.7370262,0 L10.7370262,8 C10.7370262,8.82842712 10.0654534,9.5 9.23702623,9.5 L9.23702623,9.5 L1.23702623,9.5 C0.408599106,9.5 -0.262973769,8.82842712 -0.262973769,8 L-0.262973769,8 L-0.262973769,0 C-0.262973769,-0.828427125 0.408599106,-1.5 1.23702623,-1.5 L1.23702623,-1.5 Z M21.2370262,-1.5 C22.0654534,-1.5 22.7370262,-0.828427125 22.7370262,0 L22.7370262,0 L22.7370262,8 C22.7370262,8.82842712 22.0654534,9.5 21.2370262,9.5 L21.2370262,9.5 L13.2370262,9.5 C12.4085991,9.5 11.7370262,8.82842712 11.7370262,8 L11.7370262,8 L11.7370262,0 C11.7370262,-0.828427125 12.4085991,-1.5 13.2370262,-1.5 L13.2370262,-1.5 Z M9.23702623,0 L1.23702623,0 L1.23783007,4.01340678 C2.17108049,3.46238927 3.37154563,2.99002405 4.65895711,3.07956581 C4.94266611,2.35010292 5.6587488,1.88170636 6.44077175,1.91406377 C7.44456802,1.91406377 8.27140323,2.61275478 8.27140323,3.46704948 C8.27140323,4.32134417 7.45982328,5.01698413 6.44077175,5.01698413 C5.65344984,5.05607051 4.93143668,4.58089945 4.65590606,3.84232893 C3.36118572,3.73337631 2.12482561,4.32582714 1.23691823,4.91921416 L1.23702623,8 L9.23702623,8 L9.23702623,0 Z M21.2370262,0 L13.2370262,0 L13.2370262,8 L21.2370262,8 L21.2370262,0 Z M14.5995714,4.92850361 C14.6087245,4.89799308 15.4325087,1.94152324 19.7039822,2.55173374 C19.8211633,2.5675283 19.9240478,2.63762542 19.9816279,2.74089899 C20.0393559,2.84390486 20.0461161,2.96784108 19.9999342,3.07651476 C19.1486906,5.1085157 17.2112723,5.47464258 15.917626,5.47464258 C15.5806751,5.47477976 15.2441641,5.45030623 14.9107787,5.40141674 C14.8039612,5.38607287 14.709205,5.32476005 14.6514393,5.23360885 C14.5906865,5.14425563 14.5717582,5.03291304 14.5995714,4.92850361 Z M6.45602702,2.67682689 C5.87022494,2.67682689 5.37595444,3.03990213 5.37595444,3.46704948 L5.37595444,3.46704948 L5.36069918,3.46704948 C5.36069918,3.89419682 5.86717389,4.25422101 6.45602702,4.25422101 C7.04488014,4.25422101 7.53915064,3.89419682 7.53915064,3.46704948 C7.53915064,3.03990213 7.04182909,2.67682689 6.45602702,2.67682689 Z" id="Combined-Shape"></path>
        </g>
    </g>
</svg>