<?xml version="1.0" encoding="UTF-8"?>
<svg width="24px" height="24px" viewBox="0 0 24 24" version="1.1" xmlns="http://www.w3.org/2000/svg" xmlns:xlink="http://www.w3.org/1999/xlink">
    <title>icon/supporter</title>
    <g id="icon/supporter" stroke="none" stroke-width="1" fill="none" fill-rule="evenodd">
        <path d="M6.49172336,23.7295252 L6.611,23.723 L12.7563928,23.7229502 L17.9481703,21.3515885 L17.0168067,20.1096105 L16.9126346,19.9827721 C16.4758233,19.4963626 15.8044616,19.2642133 15.1477475,19.3918656 L13.875,19.638 L13.8692394,19.6101276 C13.7255522,18.870921 13.139861,18.2972153 12.4005814,18.1678646 L8.48940213,17.5169566 L8.28420983,17.5 L6.32570122,17.5 L6.20755129,17.522966 C5.47892083,17.6645974 4.94059381,18.2906891 4.92599477,19.0333748 L4.931,19.176 L4.92554419,22.3481271 L4.94871936,22.467353 L4.98174777,22.6042264 C5.17582375,23.274552 5.79611108,23.728969 6.49172336,23.7295252 Z M8.28420983,18.75 L12.1851435,19.3991592 C12.3848902,19.4341086 12.5506047,19.5749874 12.6190241,19.7645728 L12.6422054,19.8486388 L11.7878877,19.9796779 L11.5651774,20.0083554 L11.2946243,20.0342611 L11.214503,20.0361399 L11.1865549,20.0343012 L9.60315866,19.8297022 L9.4402434,21.0936763 L11.0236397,21.2982754 C11.2951484,21.3337067 11.568437,21.3355846 11.8396834,21.3013312 L12.0426756,21.2688263 L15.3862588,20.6188996 C15.5951769,20.57829 15.8062565,20.6468575 15.9505175,20.7849136 L16.0167604,20.8595487 L12.4842926,22.4730152 L8.02601213,22.47408 L7.98654578,22.4697103 L7.94372938,22.4740193 L6.56011839,22.4730152 L6.49272293,22.4795256 C6.36370866,22.4794224 6.24933586,22.4069354 6.19834911,22.2981674 L6.17575334,22.2288418 L6.18115442,19.1203793 L6.17575334,19.0579414 C6.17812145,18.9374704 6.25375601,18.8254155 6.37098626,18.7735109 L6.44606253,18.75 L8.28420983,18.75 Z" id="Path" fill="#FFFFFF" fill-rule="nonzero"></path>
        <g id="icon/honoo/white" transform="translate(3.000000, 0.000000)" fill="#FFFFFF">
            <path d="M15.2297687,3.00324733 C15.185435,3.32403248 15.1499249,3.65051613 15.116216,3.97888254 L15.0661257,4.47236726 C14.8641461,6.44813863 14.6006079,8.42300568 12.7586803,9.57276546 C11.9156043,10.069322 11.2002922,10.0472102 10.4190714,10.6873763 C9.63785061,11.3275425 9.54512093,12.2764683 9.96255505,12.9140626 C10.3799892,13.551657 11.2126782,13.7493025 11.9723492,13.419936 C12.7320202,13.0905694 13.6701387,12.1527292 14.160249,11.0548956 C13.836894,12.3190013 13.2283893,14.0323446 11.7605211,15.2180174 C9.92360508,16.701789 8.32715351,16.5709667 6.94112696,16.389818 C5.55510041,16.2086693 3.59964118,14.4593404 3.59964118,14.4593404 C3.59964118,14.4593404 4.18873728,14.7737329 4.90783838,14.6223072 C5.76110669,14.4427026 6.09116191,13.7425175 6.185937,13.4823735 C6.19588253,13.453122 6.20543805,13.4233829 6.21470104,13.3934488 C6.22220895,13.3688774 6.22981435,13.3443061 6.23683473,13.3190523 C6.24600022,13.286193 6.25419066,13.2523587 6.2623811,13.2186219 C6.26852393,13.1932705 6.27476427,13.1680167 6.28032207,13.1420803 C6.28782997,13.1064909 6.2940703,13.0697314 6.30040814,13.0330694 C6.30489338,13.0076206 6.30957364,12.9825617 6.31337634,12.9566253 C6.31932416,12.9164532 6.32361439,12.8749159 6.32790462,12.8333787 C6.33034225,12.8095874 6.33365743,12.7863812 6.33560753,12.7621999 C6.33989776,12.7092545 6.34214038,12.6547491 6.34389548,12.5999512 C6.3442855,12.5860079 6.34565057,12.5727472 6.34584558,12.558804 C6.34701565,12.4894777 6.34594309,12.4185914 6.34272542,12.3462425 C6.34175036,12.3259615 6.33950774,12.3048028 6.33814267,12.2843267 C6.334925,12.2315764 6.33141481,12.178631 6.32556449,12.1243206 C6.31844661,12.056847 6.30967114,11.9884958 6.29855554,11.9185846 C6.2903651,11.8675893 6.28314972,11.8170816 6.27690938,11.767159 L6.27690938,11.767159 L6.27154659,11.7172363 C6.2679389,11.6854496 6.2641362,11.6535654 6.26140605,11.6221687 C6.17196086,10.2811822 6.73954339,9.21606619 7.96415364,8.42682061 C6.14910003,8.55460485 5.32464775,8.85016408 4.52598238,9.41432937 C2.31085846,11.0045422 3.00864224,13.6008634 3.00864224,13.6008634 C2.22842021,12.4280179 2.12016746,10.9239313 2.10969455,10.3332725 L2.10940887,10.1457512 C2.11016121,10.1023333 2.11127582,10.0790568 2.11129671,10.0790777 C2.16394954,8.52162661 2.77891505,6.70929682 4.60226294,5.33457051 C5.78724406,4.44113005 7.01424993,4.15738982 8.35709202,4.00108892 L8.35709202,4.00108892 L8.83594023,3.95048371 L8.92788767,3.94278079 L9.12241061,3.93273775 L9.43735252,3.92815501 L10.3743778,3.93888058 L10.7466528,3.93576042 L10.9967537,3.92717996 L11.2464646,3.91138411 C11.3242677,3.90515596 11.4018449,3.89942518 11.4792993,3.89394978 L11.9433769,3.86222607 C12.949259,3.79174254 13.9692308,3.68262823 15.2297687,3.00324733 Z M14.1202523,4.35693557 C11.1443459,5.52540278 8.35085169,3.99094838 5.59350116,5.66550328 C2.97977584,7.2528885 2.97977584,9.76082064 2.97977584,9.76082064 C3.72344826,8.82213775 4.66643405,7.74411227 7.05961476,7.73093443 C10.2436843,7.71340163 11.1001314,7.28258283 11.2235577,7.20885699 L11.2384994,7.19940616 L11.2384994,7.19940616 L11.2119708,7.22536345 C11.0537835,7.37548683 10.2501315,8.11311896 9.25715207,8.57949381 C7.50405697,9.40287386 7.46561467,10.6404218 7.46561467,10.6404218 C8.76506694,8.957969 11.4121336,9.88527442 12.9037687,8.25605946 C14.3953063,6.62674699 14.1202523,4.35693557 14.1202523,4.35693557 Z" id="Combined-Shape" transform="translate(8.669313, 9.750212) rotate(-41.000000) translate(-8.669313, -9.750212) "></path>
        </g>
    </g>
</svg>