<svg width="24" height="24" viewBox="0 0 24 24" fill="none" xmlns="http://www.w3.org/2000/svg">
<path fill-rule="evenodd" clip-rule="evenodd" d="M16.4611 9.66068C16.1812 10.2587 15.4029 10.5103 14.8237 10.3444C14.2444 10.1785 13.7515 9.48847 13.9055 8.71443C13.989 8.29438 14.1124 8.07769 14.2542 7.82867C14.3737 7.61882 14.5062 7.386 14.639 6.98915C15.2641 4.94798 14.0444 3.20179 12.9023 1.56667C12.6864 1.25756 12.4733 0.952412 12.2759 0.649994C11.7685 1.99434 11.0538 2.70538 10.3372 3.41827C10.2318 3.52311 10.1264 3.62799 10.0216 3.73493L9.85506 3.89929L9.6838 4.0588L9.42296 4.28941L8.75501 4.85676L8.53553 5.05322L8.4044 5.17966L8.34423 5.24151L8.0373 5.57103C7.18541 6.50525 6.49346 7.45835 6.20526 8.816C5.76179 10.905 6.4397 12.5615 7.35811 13.6931C7.35786 13.6931 8.53553 15.1839 10.1523 15.6282C10.1523 15.6282 8.06679 14.2238 8.65457 11.7423C8.87213 10.8541 9.2727 10.1397 10.4754 8.93585C10.4754 8.93585 9.90523 10.8985 11.2341 12.2359C11.252 12.2532 11.2707 12.2704 11.2894 12.2875L11.2996 12.2968L11.313 12.3093C11.3199 12.3158 11.3268 12.3223 11.334 12.3287C11.369 12.3601 11.4051 12.3913 11.4422 12.4223C11.4929 12.4648 11.541 12.5077 11.5875 12.551C11.6249 12.5857 11.6599 12.6209 11.6945 12.6562L11.7114 12.6728C11.7197 12.6809 11.7279 12.6889 11.7357 12.6971C11.7824 12.7461 11.8266 12.7955 11.8683 12.8452C11.8729 12.8506 11.8771 12.8561 11.8814 12.8616C11.8849 12.8662 11.8884 12.8708 11.8922 12.8754C11.9246 12.9152 11.9565 12.955 11.9859 12.995C11.9941 13.0061 12.0017 13.0173 12.0094 13.0285L12.0094 13.0285L12.0242 13.05L12.0242 13.05C12.0466 13.0819 12.0691 13.1139 12.0895 13.1459C12.1 13.1623 12.1098 13.1787 12.1197 13.1951L12.1197 13.1952L12.1273 13.2078L12.1312 13.2142C12.1479 13.2419 12.1646 13.2695 12.18 13.2971C12.1905 13.3161 12.2003 13.335 12.2101 13.354L12.2143 13.3621L12.2151 13.3637L12.2151 13.3637C12.2298 13.392 12.2444 13.4204 12.2579 13.4486C12.2672 13.4684 12.276 13.488 12.2847 13.5075L12.2879 13.5147C12.2997 13.5415 12.3112 13.5684 12.3221 13.5951C12.4149 13.8369 12.6115 14.5336 12.1195 15.1839C11.7048 15.732 11.0961 15.8715 11.0961 15.8715C11.0961 15.8715 13.5496 15.9065 14.639 15.1839C15.7285 14.4614 16.9355 13.5742 17.3217 11.3999C17.6302 9.66241 17.0085 8.07976 16.4611 6.98915C16.7888 8.06472 16.7411 9.06263 16.4611 9.66068ZM12.0002 8.13779C12.3179 6.98835 12.1264 5.84208 12.1264 5.84208C12.1264 5.84208 11.834 6.34656 10.0027 7.60988C8.33014 8.76372 7.88798 9.94209 7.67047 11.1856C7.67047 11.1856 7.36086 9.59516 7.89197 8.31238C8.30089 7.32474 8.834 6.86737 9.64334 6.17301C10.3454 5.57068 11.2553 4.79003 12.4723 3.33024C12.524 3.41604 12.5861 3.50861 12.6533 3.60903C13.0094 4.14056 13.5127 4.89177 13.411 6.02084C13.345 6.75285 13.0587 7.29328 12.7411 7.60988C12.4705 7.87963 12.2454 8.00281 12.0837 8.0913C12.0537 8.10775 12.0258 8.12301 12.0002 8.13779ZM6.08533 24.0002L6.24414 23.9915L14.4266 23.9914L21.3393 20.834L20.0992 19.1804L19.9605 19.0115C19.3789 18.3638 18.485 18.0547 17.6106 18.2247L15.916 18.5524L15.9083 18.5153C15.717 17.5311 14.9372 16.7672 13.9528 16.595L8.74519 15.7283L8.47198 15.7057H5.86427L5.70696 15.7363C4.73681 15.9249 4.02004 16.7585 4.0006 17.7474L4.00726 17.9373L4 22.1609L4.03086 22.3196L4.07483 22.5019C4.33324 23.3944 5.15914 23.9994 6.08533 24.0002ZM8.47198 17.5803L13.666 18.4446C13.9069 18.4868 14.0622 18.93 14.157 19.2007C14.1668 19.2288 14.176 19.255 14.1846 19.2787V19.6318L12.3145 19.4301L10.169 19.1552L10.0112 20.2639L12.1195 20.5363C12.481 20.5835 12.8448 20.586 13.206 20.5404L13.4763 20.4971L17.9282 19.6318C18.1752 19.5838 18.4244 19.8291 18.6117 20.0133L18.6117 20.0134C18.6353 20.0367 18.658 20.0589 18.6795 20.0795L18.7677 20.1789L14.0643 22.0459L8.12819 22.0473L8.07565 22.0415L8.01864 22.0473L6.51401 22.0459L6.42428 22.0546C6.2525 22.0545 6.10021 21.9579 6.03233 21.8131L6.00224 21.7208L6.00943 18.0734L6.00224 17.9903C6.00539 17.8299 6.1061 17.6807 6.26219 17.6116L6.36215 17.5803H8.47198Z" fill="#EFEFEF"/>
</svg>
