<?xml version="1.0" encoding="UTF-8"?>
<svg width="24px" height="24px" viewBox="0 0 24 24" version="1.1" xmlns="http://www.w3.org/2000/svg" xmlns:xlink="http://www.w3.org/1999/xlink">
    <title>icon/talkRoom</title>
    <g id="icon/talkRoom" stroke="none" stroke-width="1" fill="none" fill-rule="evenodd">
        <g id="B" transform="translate(2.500000, 0.000000)" fill="#FFFFFF">
            <path d="M15.0909091,14 C16.8983865,14 18.3636364,15.4652499 18.3636364,17.2727273 C18.3636364,18.2525626 17.9330382,19.1318264 17.2507496,19.7316108 C18.3493179,20.4141561 19.0995358,21.6044009 19.175463,22.9745735 L19.1818182,23.2045455 L17.5454545,23.2045455 C17.5454545,21.8489374 16.4465171,20.75 15.0909091,20.75 C13.7895254,20.75 12.7246893,21.7627807 12.6415846,23.0431584 L12.6363636,23.2045455 L11,23.2045455 C11,21.7382173 11.7714687,20.4520752 12.9306606,19.729865 C12.24878,19.1318264 11.8181818,18.2525626 11.8181818,17.2727273 C11.8181818,15.4652499 13.2834317,14 15.0909091,14 Z M4.09090909,14 C5.89838645,14 7.36363636,15.4652499 7.36363636,17.2727273 C7.36363636,18.2525626 6.93303819,19.1318264 6.25074958,19.7316108 C7.34931788,20.4141561 8.09953579,21.6044009 8.17546297,22.9745735 L8.18181818,23.2045455 L6.54545455,23.2045455 C6.54545455,21.8489374 5.44651711,20.75 4.09090909,20.75 C2.78952539,20.75 1.7246893,21.7627807 1.64158463,23.0431584 L1.63636364,23.2045455 L0,23.2045455 C0,21.7382173 0.771468726,20.4520752 1.93066062,19.729865 C1.24878,19.1318264 0.818181818,18.2525626 0.818181818,17.2727273 C0.818181818,15.4652499 2.28343173,14 4.09090909,14 Z M15.0909091,15.6363636 C14.1871704,15.6363636 13.4545455,16.3689886 13.4545455,17.2727273 C13.4545455,18.176466 14.1871704,18.9090909 15.0909091,18.9090909 C15.9946478,18.9090909 16.7272727,18.176466 16.7272727,17.2727273 C16.7272727,16.3689886 15.9946478,15.6363636 15.0909091,15.6363636 Z M4.09090909,15.6363636 C3.18717041,15.6363636 2.45454545,16.3689886 2.45454545,17.2727273 C2.45454545,18.176466 3.18717041,18.9090909 4.09090909,18.9090909 C4.99464777,18.9090909 5.72727273,18.176466 5.72727273,17.2727273 C5.72727273,16.3689886 4.99464777,15.6363636 4.09090909,15.6363636 Z M2.80417878,3.85956583 L2.80379747,7.00791139 C2.80379747,8.73607329 4.14871141,10.1501137 5.84897853,10.2604719 L6.06329114,10.2674051 L13.1225702,10.2683216 C12.8538359,11.0274302 12.1296609,11.5712025 11.278481,11.5712025 L2.80379747,11.5712025 L1.5,12.875 L1.5,5.70411392 C1.5,4.85244904 2.04439217,4.12793377 2.80417878,3.85956583 Z M15.1898734,0 C16.0601226,0 16.799831,0.623779629 16.9537522,1.47180532 L16.9780398,1.69087638 L16.9825949,11.1694804 L14.6083797,8.80063291 L6.06329114,8.80063291 C5.19304198,8.80063291 4.45333352,8.17685328 4.29941239,7.32882759 L4.27512475,7.10975654 L4.27056962,1.79272152 C4.27056962,0.92247236 4.89434925,0.182763901 5.74237494,0.028842769 L5.961446,0.00455512568 L6.06329114,0 L15.1898734,0 Z M14.7009494,2.28164557 L6.55221519,2.28164557 L6.55221519,6.51898734 L14.7009494,6.51898734 L14.7009494,2.28164557 Z" id="Combined-Shape"></path>
        </g>
    </g>
</svg>