<svg width="24" height="24" viewBox="0 0 24 24" fill="none" xmlns="http://www.w3.org/2000/svg">
<path fill-rule="evenodd" clip-rule="evenodd" d="M14.185 20.5H12.369C12.177 20.5 12.033 20.428 11.961 20.212L11.145 17.74H4.809L3.993 20.212C3.921 20.428 3.777 20.5 3.585 20.5H0.753001C0.489001 20.5 0.369001 20.332 0.465001 20.092L6.081 3.988C6.153 3.796 6.345 3.7 6.537 3.7H9.441C9.633 3.7 9.825 3.796 9.897 3.988L14.7809 17.9926L17.223 10.868C17.265 10.756 17.377 10.7 17.489 10.7H19.603C19.715 10.7 19.841 10.756 19.883 10.868L23.103 20.262C23.159 20.402 23.075 20.5 22.921 20.5H20.835C20.723 20.5 20.625 20.458 20.583 20.332L20.219 19.156H16.873L16.509 20.332C16.467 20.458 16.383 20.5 16.271 20.5H15.201H14.185ZM7.977 8.02L10.161 14.692H5.793L7.977 8.02ZM19.547 17H17.559L18.553 13.808L19.547 17Z" fill="#FBDEDF"/>
</svg>
