<?xml version="1.0" encoding="UTF-8"?>
<svg width="24px" height="24px" viewBox="0 0 24 24" version="1.1" xmlns="http://www.w3.org/2000/svg" xmlns:xlink="http://www.w3.org/1999/xlink">
    <title>icon/timeline</title>
    <g id="icon/timeline" stroke="none" stroke-width="1" fill="none" fill-rule="evenodd">
        <path d="M12.2452702,0 C12.5712897,0.760712091 13.003497,1.45436911 13.4455018,2.12325071 L13.8872024,2.78543974 C14.543942,3.77103332 15.1504331,4.73259192 15.3813582,5.81280934 C15.7668088,7.61591907 15.6935201,8.79887606 15.5411747,9.67985984 L15.481081,9.99669521 L15.3008245,10.8146281 L15.2555786,11.0555101 C15.2298654,11.2124617 15.2140425,11.3629688 15.2140425,11.512003 C15.2810525,12.9106439 16.2161468,13.5705547 17.3021927,13.5705547 C18.4647018,13.5705547 19.5696028,12.2256745 19.3067499,10.2888885 C19.2860864,10.1935571 19.2621603,10.0963827 19.2342186,9.99669521 C20.0577462,11.3449897 20.841259,13.5032401 20.841259,15.1997708 C20.841259,17.9721726 20.0062795,20.2759895 18.0004158,21.8808746 C15.8649661,23.5898034 14.0870276,24.0107821 11.6429742,24.0002003 C9.19892075,23.9892179 7.19042587,23.3022404 5.47834778,21.57057 C3.76626968,19.8388996 2.99167156,17.710472 2.99167156,15.1997708 C2.99167156,12.5713876 4.0811592,10.8216288 5.25613184,9.40677941 L5.56392546,9.04492796 L6.02422333,8.52594805 L6.47195836,8.03651337 L6.87397343,7.61200247 L7.23636924,7.24166619 L7.5652465,6.91475536 L8.41177417,6.08708377 L8.66758439,5.82638297 L9.3887181,5.04586544 L9.67580572,4.724962 C10.576638,3.6973283 11.7935482,2.08907981 12.2452702,0 Z M12.475,5.235 L12.2894182,5.48384959 C12.1216187,5.70142064 11.9491949,5.91364529 11.7693872,6.1254063 L11.3757932,6.5751418 L10.6198458,7.40052589 L10.4822291,7.54605801 L10.1902967,7.84409716 L9.17267243,8.84095479 L8.91883048,9.09567057 L8.41326154,9.62071363 C8.24245647,9.80231675 8.06753457,9.99258834 7.88299167,10.1977675 L7.44475241,10.6958263 C6.00116091,12.3788455 5.49167156,13.4690563 5.49167156,15.1997708 C5.49167156,17.1270282 6.05680495,18.5998258 7.2561432,19.8128887 C7.86159947,20.4252736 8.51238315,20.85578 9.26814804,21.1286356 C8.17209583,20.2764841 7.71596892,18.7676015 8.18063157,17.4075154 C8.74791482,15.7468848 10.1046065,15.629464 11.0058334,12.7004764 C11.2311401,13.8270101 11.3828711,14.1162902 11.3638331,14.7091055 C11.3638331,14.7754302 11.3613233,14.8386287 11.3576504,14.9004173 C11.3249613,15.2588282 11.2272003,15.5835249 11.1121153,15.8800858 C10.9989893,16.1204975 10.6810007,16.8938684 11.0058334,17.752846 C11.2599878,18.220433 11.5547108,18.5716656 12.265509,18.5716656 C12.9599367,18.5716656 13.2710688,18.4438735 13.6037245,17.9256944 C13.825495,17.5802418 13.8594439,17.2891007 13.8631851,17.1043123 L13.8629617,16.9440371 L13.8629617,16.9440371 L13.8658428,16.9133992 C14.5230664,18.1324874 14.1369654,20.6340169 12.5162989,21.4802252 C14.1048916,21.3872639 15.1326222,20.9738954 16.4385629,19.9287948 C17.540228,19.0473561 18.1512235,17.8126524 18.3033107,16.097798 L18.314,15.947 L18.2659445,15.9609045 C18.0201174,16.0183368 17.764904,16.0540536 17.5013785,16.066043 L17.3021927,16.0705547 C14.8855034,16.0705547 12.9610036,14.4039827 12.7329337,11.8648541 L12.7169069,11.6316426 L12.7140425,11.512003 C12.7140425,11.2813212 12.7309104,11.0566804 12.7674296,10.7964713 L12.798547,10.5939953 L12.8594085,10.2765874 L13.0248707,9.53082915 L13.0777362,9.25386619 C13.2186224,8.43914841 13.204011,7.58638286 12.9365974,6.3354418 C12.8795545,6.06860736 12.774959,5.79299742 12.587846,5.43969496 L12.475,5.235 Z" id="Combined-Shape" fill="#FFFFFF"></path>
    </g>
</svg>