<svg width="24" height="24" viewBox="0 0 24 24" fill="none" xmlns="http://www.w3.org/2000/svg">
<path d="M22.0806 17.6679L14.4983 10.0857C14.3272 9.91448 14.2538 9.64536 14.3026 9.40077C14.8897 7.10163 14.2292 4.65574 12.5416 2.96808C10.5849 1.01136 7.64986 0.448806 5.08167 1.57396C5.05723 1.5984 5.03279 1.62284 5.00826 1.62284C4.98382 1.64728 4.93485 1.64728 4.91041 1.67173C4.88597 1.69617 4.86153 1.74514 4.837 1.79402C4.837 1.81846 4.81256 1.84291 4.78812 1.84291C4.76367 1.86735 4.76367 1.91632 4.76367 1.9652C4.76367 1.98964 4.73923 2.03861 4.73923 2.06305C4.73923 2.0875 4.73923 2.11194 4.76367 2.13646C4.76367 2.18535 4.76367 2.23432 4.78812 2.2832C4.81256 2.30764 4.837 2.33209 4.837 2.35661C4.86144 2.38105 4.86144 2.43002 4.88589 2.45446L8.40797 5.97655C8.70144 6.27001 8.70144 6.73475 8.40797 7.00378L7.13615 8.2756C6.84268 8.56907 6.37794 8.56907 6.10891 8.2756L2.53791 4.77818C2.51347 4.75374 2.48903 4.75374 2.4645 4.7293C2.44006 4.70485 2.41562 4.68041 2.39109 4.68041H2.36665C2.31776 4.65597 2.29324 4.65597 2.24436 4.65597C2.21991 4.65597 2.17095 4.63153 2.1465 4.63153C2.12206 4.63153 2.07309 4.63153 2.04865 4.65597C1.99977 4.65597 1.97524 4.65597 1.92636 4.68041C1.90191 4.68041 1.87747 4.70485 1.85295 4.7293C1.80406 4.75374 1.77954 4.77818 1.73065 4.80271C1.70629 4.80263 1.70629 4.82707 1.68185 4.85151C1.6574 4.87595 1.63296 4.9004 1.63296 4.92492V4.94936C0.434455 7.51755 0.972612 10.5749 2.95376 12.5805C4.64145 14.2682 7.08732 14.9041 9.38646 14.3415C9.63105 14.2681 9.90008 14.366 10.0714 14.5373L17.6292 22.0951C18.2162 22.6821 18.9988 23 19.8549 23C20.6865 23 21.4692 22.682 22.0807 22.0705C23.279 20.8721 23.279 18.8909 22.0806 17.6679Z" fill="#FAFAFB"/>
</svg>
