<svg width="24" height="24" viewBox="0 0 24 24" fill="none" xmlns="http://www.w3.org/2000/svg">
<path fill-rule="evenodd" clip-rule="evenodd" d="M4 4.5H20C20.8284 4.5 21.5 5.17157 21.5 6V18C21.5 18.8284 20.8284 19.5 20 19.5H4C3.17157 19.5 2.5 18.8284 2.5 18V6C2.5 5.17157 3.17157 4.5 4 4.5ZM0 6C0 3.79086 1.79086 2 4 2H20C22.2091 2 24 3.79086 24 6V18C24 20.2091 22.2091 22 20 22H4C1.79086 22 0 20.2091 0 18V6ZM16.1248 12C16.1248 11.564 15.7899 11.2062 15.3634 11.1697L15.2915 11.1667L12.8333 11.1667V8.70854L12.8303 8.63664C12.7938 8.21006 12.436 7.87521 12 7.87521C11.5398 7.87521 11.1667 8.2483 11.1667 8.70854V11.1667H8.70854C8.24831 11.1667 7.87521 11.5398 7.87521 12C7.87521 12.436 8.21007 12.7938 8.63664 12.8303L8.70854 12.8333H11.1667V15.2915L11.1697 15.3634C11.2062 15.7899 11.564 16.1248 12 16.1248C12.4602 16.1248 12.8333 15.7517 12.8333 15.2915V12.8333H15.2915C15.7517 12.8333 16.1248 12.4602 16.1248 12Z" fill="#EFEFEF"/>
</svg>
