<?xml version="1.0" encoding="UTF-8"?>
<svg width="24px" height="24px" viewBox="0 0 24 24" version="1.1" xmlns="http://www.w3.org/2000/svg" xmlns:xlink="http://www.w3.org/1999/xlink">
    <title>icon/voice</title>
    <g id="icon/voice" stroke="none" stroke-width="1" fill="none" fill-rule="evenodd">
        <path d="M21,9 C21.5522847,9 22,9.44771525 22,10 C22,15.1356533 18.1099105,19.4364347 13,19.95 L13,19.95 L13,23 C13,23.5522847 12.5522847,24 12,24 C11.4477153,24 11,23.5522847 11,23 L11,23 L11,19.95 C5.89008952,19.4364347 2,15.1356533 2,10 C2,9.44771525 2.44771525,9 3,9 C3.26521649,9 3.5195704,9.10535684 3.70710678,9.29289322 C3.89464316,9.4804296 4,9.73478351 4,10 C4,14.418278 7.581722,18 12,18 C16.418278,18 20,14.418278 20,10 C20,9.44771525 20.4477153,9 21,9 Z M12,0 C15.3137085,0 18,2.6862915 18,6 L18,6 L18,10 C18,13.3137085 15.3137085,16 12,16 C8.6862915,16 6,13.3137085 6,10 L6,10 L6,6 C6,2.6862915 8.6862915,0 12,0 Z M15.86,11 L8.14,11 C8.59478205,12.7614029 10.180843,13.9940928 12,14 C13.819157,13.9940928 15.4052179,12.7614029 15.86,11 L15.86,11 Z M12,2 C9.790861,2 8,3.790861 8,6 L8,6 L8,9 L16,9 L16,6 C16,3.790861 14.209139,2 12,2 Z" id="Combined-Shape" fill="#FFFFFF"></path>
    </g>
</svg>