<svg width="24" height="24" viewBox="0 0 24 24" fill="none" xmlns="http://www.w3.org/2000/svg">
<path d="M24 20.8429L24 3.15833C24 1.41521 22.5849 -6.18565e-08 20.8417 -1.38055e-07L3.15833 -9.11018e-07C1.41521 -9.87212e-07 -4.01375e-07 1.41511 -4.77574e-07 3.15833L-1.25054e-06 20.8417C-1.32673e-06 22.5848 1.41511 24 3.15833 24L20.8417 24C22.5848 24 24 22.5849 24 20.8417L24 20.8429ZM10.1061 3.79066L10.1061 1.2648L13.8955 1.2648L13.8955 3.79066L10.1061 3.79066ZM15.1578 3.79066L15.1578 1.2648L18.9472 1.2648L18.9472 3.79066L15.1578 3.79066ZM8.84268 1.26364L8.84268 3.78949L5.05328 3.78949L5.05328 1.26364L8.84268 1.26364ZM22.7366 5.05303L22.7366 18.947L1.26389 18.947L1.26389 5.05303L22.7366 5.05303ZM13.8955 20.2106L13.8955 22.7365L10.1061 22.7365L10.1061 20.2106L13.8955 20.2106ZM15.1578 20.2106L18.9472 20.2106L18.9472 22.7365L15.1578 22.7365L15.1578 20.2106ZM8.84265 20.2106L8.84265 22.7365L5.05326 22.7365L5.05326 20.2106L8.84265 20.2106ZM20.8419 22.7376L20.2107 22.7376L20.2107 20.2118L22.7366 20.2118L22.7366 20.8429C22.7366 21.8909 21.8899 22.7376 20.8419 22.7376ZM22.7366 3.15833L22.7366 3.78949L20.2107 3.78949L20.2107 1.26364L20.8419 1.26364C21.8899 1.26364 22.7366 2.11034 22.7366 3.15833ZM3.15856 1.26364L3.78972 1.26364L3.78972 3.78949L1.26386 3.78949L1.26386 3.15833C1.26386 2.11034 2.11057 1.26364 3.15856 1.26364ZM1.26386 20.8429L1.26386 20.2118L3.78972 20.2118L3.78972 22.7376L3.15856 22.7376C2.11056 22.7376 1.26386 21.8909 1.26386 20.8429Z" fill="#383739"/>
</svg>
