<svg width="24" height="24" viewBox="0 0 24 24" fill="none" xmlns="http://www.w3.org/2000/svg">
<path d="M12 0C5.38809 0 0 5.38775 0 12C0 18.6119 5.38775 24 12 24C18.6119 24 24 18.612 24 12C24 5.38798 18.6123 0 12 0ZM12 2.57149C17.2225 2.57149 21.4287 6.77762 21.4287 12.0002C21.4287 17.2228 17.2226 21.429 12 21.429C6.77739 21.429 2.57127 17.2228 2.57127 12.0002C2.57127 6.77762 6.77739 2.57149 12 2.57149ZM12 4.28586C11.29 4.28586 10.7143 4.86159 10.7143 5.57161V12.0003C10.7143 12.4757 10.9734 12.8896 11.3571 13.112L16.1787 15.8977C16.7937 16.2528 17.5781 16.0439 17.9332 15.4289C18.2883 14.814 18.0794 14.0295 17.4644 13.6744L13.2858 11.2637V5.57169C13.2858 4.86167 12.7103 4.28594 12 4.28594L12 4.28586Z" fill="#383739"/>
</svg>
