<svg width="24" height="24" viewBox="0 0 24 24" fill="none" xmlns="http://www.w3.org/2000/svg">
<path fill-rule="evenodd" clip-rule="evenodd" d="M21.3104 6.45996H2.68886C1.20636 6.45996 0 7.66623 0 9.15051V14.8514C0 16.3338 1.20627 17.5402 2.68886 17.5402H21.3111C22.7936 17.5402 24 16.3339 24 14.8514V9.15051C23.9992 7.66613 22.7929 6.45996 21.3104 6.45996ZM22.3383 14.8506C22.3383 15.4167 21.8764 15.8785 21.3104 15.8785H2.68886C2.12189 15.8785 1.66002 15.4166 1.66002 14.8506V9.14979C1.66002 8.58197 2.12189 8.1201 2.68886 8.1201H21.3111C21.8772 8.1201 22.339 8.58197 22.339 9.14979V14.8506H22.3383ZM6.63551 12.2923L5.99609 11.9237L6.56936 11.5922C6.80209 11.4591 6.88181 11.1602 6.7469 10.9283C6.612 10.6965 6.31674 10.6169 6.08401 10.7517L5.57592 11.0433V10.4583C5.57592 10.1893 5.35857 9.97279 5.08961 9.97279C4.82065 9.97279 4.60415 10.1892 4.60415 10.4583V11.1203L3.96473 10.7508C3.732 10.6167 3.43589 10.6955 3.30089 10.9274C3.16779 11.161 3.24656 11.4581 3.47928 11.5912L4.05255 11.9227L3.41314 12.2905C3.18041 12.4236 3.10068 12.7224 3.23475 12.9543C3.32531 13.11 3.48832 13.1979 3.65587 13.1979C3.73832 13.1979 3.82162 13.1762 3.89861 13.1317L4.60405 12.7242V13.5402C4.60405 13.8092 4.82046 14.0257 5.08951 14.0257C5.35847 14.0257 5.57582 13.8093 5.57582 13.5402V12.8021L6.14909 13.1336C6.22607 13.1762 6.30937 13.198 6.39182 13.198C6.56031 13.198 6.72333 13.1102 6.81295 12.9544C6.9471 12.7233 6.86739 12.4272 6.63551 12.2923ZM10.6456 11.9237L11.2859 12.2923C11.5178 12.4272 11.5975 12.7233 11.4643 12.9544C11.3747 13.1102 11.2107 13.198 11.0432 13.198C10.9617 13.198 10.8774 13.1762 10.8004 13.1336L10.2272 12.8021V13.5402C10.2272 13.8093 10.0107 14.0257 9.74171 14.0257C9.47275 14.0257 9.2554 13.8092 9.2554 13.5402V12.7242L8.54901 13.1317C8.47297 13.1762 8.38967 13.1979 8.30722 13.1979C8.13967 13.1979 7.97666 13.11 7.88609 12.9543C7.75118 12.7224 7.83091 12.4236 8.06364 12.2905L8.70305 11.9227L8.12978 11.5912C7.8979 11.4581 7.81819 11.161 7.95224 10.9274C8.08533 10.6955 8.38241 10.6167 8.61608 10.7508L9.25455 11.1203V10.4583C9.25455 10.1892 9.47275 9.97279 9.74086 9.97279C10.009 9.97279 10.2263 10.1893 10.2263 10.4583V11.0433L10.7344 10.7517C10.9662 10.6169 11.2633 10.6965 11.3973 10.9283C11.5314 11.1602 11.4516 11.4591 11.2189 11.5922L10.6456 11.9237ZM15.9355 12.2922L15.2952 11.9236L15.8694 11.5921C16.1012 11.459 16.1818 11.1602 16.0477 10.9283C15.9137 10.6964 15.6166 10.6168 15.3839 10.7517L14.8768 11.0442V10.4591C14.8768 10.1902 14.6585 9.97368 14.3905 9.97368C14.1223 9.97368 13.905 10.1901 13.905 10.4591V11.1212L13.2656 10.7517C13.0328 10.6176 12.7367 10.6964 12.6027 10.9283C12.4686 11.1619 12.5483 11.459 12.7802 11.5921L13.3535 11.9236L12.7141 12.2913C12.4822 12.4244 12.4026 12.7233 12.5365 12.9552C12.6271 13.1109 12.791 13.1987 12.9577 13.1987C13.0392 13.1987 13.1234 13.1771 13.2004 13.1326L13.9058 12.7251V13.5411C13.9058 13.81 14.1232 14.0266 14.3913 14.0266C14.6594 14.0266 14.8776 13.8101 14.8776 13.5411V12.803L15.4517 13.1345C15.5278 13.1771 15.6112 13.1989 15.6945 13.1989C15.862 13.1989 16.025 13.111 16.1156 12.9553C16.2479 12.7232 16.1682 12.4271 15.9355 12.2922ZM19.9456 11.9237L20.5858 12.2923C20.8176 12.4272 20.8983 12.7233 20.7635 12.9544C20.6729 13.1102 20.5108 13.198 20.3424 13.198C20.2599 13.198 20.1757 13.1762 20.0996 13.1336L19.5264 12.8021V13.5402C19.5264 13.8093 19.3082 14.0257 19.04 14.0257C18.7719 14.0257 18.5546 13.8092 18.5546 13.5402V12.7242L17.8482 13.1317C17.7721 13.1762 17.687 13.1979 17.6055 13.1979C17.4379 13.1979 17.2758 13.11 17.1843 12.9543C17.0512 12.7224 17.1308 12.4236 17.3627 12.2905L18.003 11.9227L17.4297 11.5912C17.1978 11.4581 17.1181 11.161 17.2522 10.9274C17.3871 10.6955 17.6832 10.6167 17.9151 10.7508L18.5553 11.1203V10.4583C18.5553 10.1892 18.7727 9.97279 19.0408 9.97279C19.3088 9.97279 19.5271 10.1893 19.5271 10.4583V11.0433L20.0343 10.7517C20.2661 10.6169 20.5632 10.6965 20.6981 10.9283C20.8312 11.1602 20.7516 11.4591 20.5197 11.5922L19.9456 11.9237Z" fill="#383739"/>
</svg>
