<svg width="24" height="24" viewBox="0 0 24 24" fill="none" xmlns="http://www.w3.org/2000/svg">
<path fill-rule="evenodd" clip-rule="evenodd" d="M1.00049 5.99984C1.00049 3.23804 3.23809 1.00024 6.00009 1.00024C8.73749 1.00024 10.9622 3.20064 10.9997 5.92964L12.4144 4.51496C14.3672 2.56214 17.5331 2.56214 19.485 4.51496C21.4378 6.46676 21.4378 9.63274 19.485 11.5856L18.0703 13.0002C20.7993 13.0376 22.9997 15.2624 22.9997 17.9998C22.9997 20.7606 20.7611 22.9994 18.0001 22.9994H6.00009C3.23829 22.9994 1.00049 20.7608 1.00049 17.9998V5.99984ZM10.0717 20.9998H18.0001H18.0001C19.6567 20.9998 21.0001 19.6564 21.0001 17.9998C21.0001 16.3433 19.6567 14.9998 18.0001 14.9998H16.0717L10.0717 20.9998ZM10.9997 17.2422V8.75704L13.8281 5.92844C15.0001 4.7575 16.8994 4.7575 18.0713 5.92844C19.2422 7.10044 19.2422 8.99976 18.0713 10.1716L10.9997 17.2422ZM6.00009 2.99984C4.34353 2.99984 3.00009 4.34328 3.00009 5.99984V17.9998C3.00009 19.6564 4.34353 20.9998 6.00009 20.9998C7.65665 20.9998 9.00009 19.6564 9.00009 17.9998V5.99984C9.00009 4.34328 7.65665 2.99984 6.00009 2.99984ZM4.00024 18.0002C4.00024 16.8958 4.89554 16.0005 5.99992 16.0005C7.10428 16.0005 7.9996 16.8958 7.9996 18.0002C7.9996 19.1045 7.10428 19.9998 5.99992 19.9998C4.89556 19.9998 4.00024 19.1045 4.00024 18.0002Z" fill="#383739"/>
</svg>
