<svg width="24" height="24" viewBox="0 0 24 24" fill="none" xmlns="http://www.w3.org/2000/svg">
<path fill-rule="evenodd" clip-rule="evenodd" d="M4.85227 7.58836L4.80633 2.8052C4.80149 2.18411 5.0437 1.58438 5.47892 1.14231C5.91491 0.699465 6.50922 0.446377 7.13109 0.442303L12.7352 0.398569C12.9681 0.396752 13.1846 0.486674 13.345 0.638369C13.5037 0.484954 13.718 0.390892 13.9509 0.389082L15.2661 0.378819C15.888 0.373188 16.4861 0.616971 16.929 1.05296C17.3711 1.48818 17.6234 2.08327 17.6282 2.70282L17.675 7.49277C18.0284 7.60491 18.2849 7.93289 18.2879 8.32418L18.3032 10.2853C18.3032 10.2853 18.3002 10.7954 17.9504 11.2383C17.7382 11.5055 17.3979 11.7807 16.9744 12.034C16.129 12.5406 14.9166 12.9864 14.1664 13.2399L14.7114 20.1878C14.7114 20.1924 14.7114 20.1955 14.7122 20.1994C14.7738 21.1229 14.4501 22.0322 13.8211 22.7103C13.1905 23.3899 12.3077 23.7781 11.3814 23.7861C10.4552 23.7926 9.56638 23.4183 8.92605 22.7494C8.28572 22.0804 7.94869 21.177 7.99514 20.252C7.99589 20.2481 7.99587 20.245 7.99583 20.2403L8.43367 13.2664C7.68162 13.0052 6.44814 12.5381 5.58771 12.0161C5.16567 11.7593 4.83751 11.4963 4.61093 11.2147C4.24948 10.7617 4.24875 10.2711 4.24875 10.2711L4.23441 8.43418C4.23131 8.03668 4.49189 7.70001 4.85283 7.5885L4.85227 7.58836ZM15.9175 7.46541L15.8712 2.71868C15.87 2.56341 15.8059 2.41407 15.6956 2.30389C15.5845 2.19451 15.4357 2.13434 15.2797 2.13477L14.6966 2.1401L14.3362 4.20118C14.2664 4.60856 13.9217 4.91017 13.508 4.92816C13.0966 4.94535 12.728 4.67337 12.6224 4.27357L12.0663 2.16063L7.14477 2.19821C6.98873 2.20021 6.84093 2.26269 6.73153 2.3738C6.62293 2.48568 6.56121 2.63445 6.5632 2.7905L6.60802 7.53707L15.9175 7.46541ZM5.99691 9.29905L6.00417 10.1305C6.08783 10.2052 6.31297 10.4022 6.49863 10.5141C7.66566 11.2208 9.6067 11.8037 9.6067 11.8037C9.99662 11.9225 10.2542 12.2932 10.2294 12.7002C10.2294 12.7002 9.74941 20.3447 9.74863 20.3502C9.73031 20.7897 9.8897 21.2163 10.195 21.5338C10.5003 21.8529 10.9248 22.032 11.3673 22.0286C11.8098 22.0251 12.2315 21.8393 12.5318 21.5156C12.8329 21.1926 12.9863 20.7597 12.9588 20.3197L12.3604 12.6845C12.3277 12.2686 12.5918 11.8876 12.9915 11.7711C12.9915 11.7711 14.9197 11.218 16.0728 10.5272C16.249 10.4218 16.4619 10.24 16.5451 10.1664L16.5385 9.21689L5.99691 9.29905ZM11.3605 21.1494C10.8753 21.154 10.4794 20.7642 10.4756 20.2782C10.4718 19.7937 10.8624 19.397 11.3468 19.3933C11.8313 19.3895 12.228 19.78 12.2318 20.2645C12.2355 20.7505 11.8458 21.1464 11.3605 21.1494Z" fill="#383739"/>
</svg>
