<svg width="24" height="24" viewBox="0 0 24 24" fill="none" xmlns="http://www.w3.org/2000/svg">
<path fill-rule="evenodd" clip-rule="evenodd" d="M4.66673 1H19.3333C20.3058 1 21.2385 1.38627 21.9261 2.07393C22.6137 2.7616 23 3.69432 23 4.66673V19.3333C23 20.3058 22.6137 21.2385 21.9261 21.9261C21.2384 22.6137 20.3057 23 19.3333 23H4.66673C3.69422 23 2.76152 22.6137 2.07393 21.9261C1.38634 21.2384 1 20.3057 1 19.3333V4.66673C1 3.69422 1.38627 2.76152 2.07393 2.07393C2.7616 1.38634 3.69432 1 4.66673 1ZM19.3333 3.44442H4.66673C4.34258 3.44442 4.03168 3.57324 3.80251 3.80241C3.57333 4.03157 3.44452 4.34245 3.44452 4.66663V12.721L6.61005 9.55548C7.06799 9.10021 7.6876 8.84469 8.33337 8.84469C8.97913 8.84469 9.59875 9.10021 10.0567 9.55548L13.8333 13.3321L15.1655 11.9999C15.6235 11.5446 16.2431 11.2891 16.8888 11.2891C17.5346 11.2891 18.1542 11.5446 18.6122 11.9999L20.5555 13.9432V4.66663C20.5555 4.34248 20.4267 4.03158 20.1975 3.80241C19.9683 3.57323 19.6574 3.44442 19.3333 3.44442ZM4.66673 20.5554H19.3333C19.6574 20.5554 19.9683 20.4266 20.1975 20.1974C20.4267 19.9682 20.5555 19.6573 20.5555 19.3332V17.3899L16.8888 13.7232L15.5566 15.0554L16.5344 16.021C16.7658 16.2504 16.8959 16.5629 16.8959 16.8887C16.8959 17.2146 16.7658 17.5271 16.5344 17.7565C16.3049 17.9879 15.9925 18.118 15.6666 18.118C15.3407 18.118 15.0283 17.9879 14.7989 17.7565L8.33337 11.2788L3.44452 16.1676V19.3332C3.44452 19.6573 3.57334 19.9682 3.80251 20.1974C4.03167 20.4266 4.34255 20.5554 4.66673 20.5554ZM16.2779 9.5555C17.2904 9.5555 18.1112 8.73471 18.1112 7.72218C18.1112 6.70965 17.2904 5.88886 16.2779 5.88886C15.2653 5.88886 14.4445 6.70965 14.4445 7.72218C14.4445 8.73471 15.2653 9.5555 16.2779 9.5555Z" fill="#383739"/>
</svg>
