<svg width="24" height="24" viewBox="0 0 24 24" fill="none" xmlns="http://www.w3.org/2000/svg">
<path fill-rule="evenodd" clip-rule="evenodd" d="M5 2H19C21.7614 2 24 4.23858 24 7V17C24 19.7614 21.7614 22 19 22H5C2.23858 22 0 19.7614 0 17V7C0 4.23858 2.23858 2 5 2ZM5 4C3.34315 4 2 5.34315 2 7V17C2 18.6569 3.34315 20 5 20H19C20.6569 20 22 18.6569 22 17V7C22 5.34315 20.6569 4 19 4H5ZM8.23798 12.5727C8.3687 12.7029 8.54372 12.7886 8.73844 12.8052L8.80817 12.8082H11.1919V12.8081H8.80812L8.73839 12.8052C8.54369 12.7885 8.36869 12.7028 8.23798 12.5727ZM11.4273 15.7621C11.5737 15.9091 11.7762 16 12 16C12.4464 16 12.8082 15.6382 12.8082 15.1919V12.8082H15.1919C15.6382 12.8082 16 12.4464 16 12C16 11.7762 15.9091 11.5737 15.7621 11.4273C15.909 11.5737 16 11.7762 16 12C16 12.4463 15.6382 12.8081 15.1919 12.8081H12.8081V15.1919C12.8081 15.6382 12.4463 16 12 16C11.7762 16 11.5737 15.909 11.4273 15.7621ZM12.8082 11.1919V8.80817L12.8052 8.73844C12.7884 8.5421 12.7014 8.36579 12.5695 8.23474C12.7014 8.36579 12.7884 8.54208 12.8052 8.73839L12.8081 8.80812V11.1919H12.8082ZM13.0084 8.80817L13.005 8.72994L13.0045 8.72141C12.9604 8.20516 12.5276 7.80005 12 7.80005C11.4433 7.80005 10.9919 8.2514 10.9919 8.80817V10.9919H8.80817C8.2514 10.9919 7.80005 11.4433 7.80005 12C7.80005 12.5276 8.20514 12.9605 8.7214 13.0047L8.79966 13.0082H10.9919L10.9917 15.1919L10.9949 15.2702L10.9956 15.2787C11.0397 15.7949 11.4725 16.2 12 16.2C12.5568 16.2 13.0082 15.7487 13.0082 15.1919V13.0082H15.1919C15.7487 13.0082 16.2 12.5568 16.2 12C16.2 11.4725 15.795 11.0396 15.2787 10.9954L15.2004 10.9919H13.0082L13.0084 8.80817Z" fill="#383739"/>
</svg>
