<svg width="24" height="24" viewBox="0 0 24 24" fill="none" xmlns="http://www.w3.org/2000/svg">
<path fill-rule="evenodd" clip-rule="evenodd" d="M0.75 6.37476C0.75 4.7182 2.09344 3.37476 3.75 3.37476H20.25C21.9066 3.37476 23.25 4.7182 23.25 6.37476V8.62476C23.25 8.8235 23.1712 9.01475 23.0306 9.15538C22.89 9.29601 22.6987 9.37476 22.5 9.37476C21.0504 9.37476 19.8748 10.5504 19.8748 12C19.8748 13.4495 21.0506 14.6252 22.5 14.6252C22.9144 14.6252 23.25 14.9608 23.25 15.3752V17.6252C23.25 19.2817 21.9066 20.6252 20.25 20.6252H3.75C2.09344 20.6252 0.75 19.2817 0.75 17.6252V15.3752C0.75 14.9608 1.08562 14.6252 1.5 14.6252C2.94958 14.6252 4.1252 13.4495 4.1252 12C4.1252 10.5504 2.94938 9.37476 1.5 9.37476C1.08562 9.37476 0.75 9.03914 0.75 8.62476V6.37476ZM3.75 4.87476C2.92124 4.87476 2.25 5.546 2.25 6.37476V7.9432C4.1698 8.2954 5.6248 9.9776 5.6248 11.9996C5.6248 14.0216 4.17 15.7035 2.25 16.056V17.6244C2.25 18.4532 2.92124 19.1244 3.75 19.1244H20.25C21.0788 19.1244 21.75 18.4532 21.75 17.6244V16.056C19.8302 15.7038 18.3752 14.0216 18.3752 11.9996C18.3752 9.9776 19.83 8.2957 21.75 7.9432V6.37476C21.75 5.546 21.0788 4.87476 20.25 4.87476H3.75ZM8.25 9C7.83562 9 7.5 8.66438 7.5 8.25V6.75C7.5 6.33562 7.83562 6 8.25 6C8.66438 6 9 6.33562 9 6.75V8.25C9 8.66438 8.66438 9 8.25 9ZM7.5 12.75C7.5 13.1644 7.83562 13.5 8.25 13.5C8.66438 13.5 9 13.1644 9 12.75V11.25C9 10.8356 8.66438 10.5 8.25 10.5C7.83562 10.5 7.5 10.8356 7.5 11.25V12.75ZM7.5 17.25C7.5 17.6644 7.83562 18 8.25 18C8.66438 18 9 17.6644 9 17.25V15.75C9 15.3356 8.66438 15 8.25 15C7.83562 15 7.5 15.3356 7.5 15.75V17.25Z" fill="#383739"/>
</svg>
