<svg width="24" height="24" viewBox="0 0 24 24" fill="none" xmlns="http://www.w3.org/2000/svg">
<path fill-rule="evenodd" clip-rule="evenodd" d="M21.3913 1.82593H2.6087C1.16795 1.82593 0 2.99388 0 4.43462V15.9129C0 17.3536 1.16795 18.5216 2.6087 18.5216H21.3913C22.832 18.5216 24 17.3536 24 15.9129V4.43462C24 2.99388 22.832 1.82593 21.3913 1.82593ZM1.56522 4.43462C1.56522 3.85833 2.0324 3.39115 2.6087 3.39115H21.3913C21.9676 3.39115 22.4348 3.85833 22.4348 4.43462V15.9129C22.4348 16.4892 21.9676 16.9564 21.3913 16.9564H2.6087C2.0324 16.9564 1.56522 16.4892 1.56522 15.9129V4.43462ZM6.52169 20.6088C6.08947 20.6088 5.73908 20.9592 5.73908 21.3914C5.73908 21.8236 6.08947 22.174 6.52169 22.174H17.4782C17.9104 22.174 18.2608 21.8236 18.2608 21.3914C18.2608 20.9592 17.9104 20.6088 17.4782 20.6088H6.52169Z" fill="#383739"/>
</svg>
