<svg width="24" height="24" viewBox="0 0 24 24" fill="none" xmlns="http://www.w3.org/2000/svg">
<g id="building">
<path id="Combined-Shape" fill-rule="evenodd" clip-rule="evenodd" d="M18.5793 1C19.1804 1 19.6957 1.21467 20.125 1.64403C20.5544 2.07338 20.769 2.59719 20.769 3.21546V21.8923C20.769 22.2014 20.6617 22.4633 20.447 22.678C20.2323 22.8927 19.979 23 19.6871 23H4.28192C3.98996 23 3.73664 22.8927 3.52197 22.678C3.30729 22.4633 3.19995 22.2014 3.19995 21.8923V3.21546C3.19995 2.59719 3.41463 2.07338 3.84398 1.64403C4.27333 1.21467 4.78855 1 5.38965 1H18.5793ZM18.5793 3.21546H5.38965V20.7845H18.5793V3.21546ZM10.8768 14.1897V16.4052H7.57934V14.1897H10.8768ZM16.3896 14.1897V16.4052H13.0922V14.1897H16.3896ZM10.8768 9.8103V12H7.57934V9.8103H10.8768ZM16.3896 9.83607V12H13.0922V9.83607H16.3896ZM10.8768 5.40515V7.59485H7.57934V5.40515H10.8768ZM16.3896 5.40515V7.59485H13.0922V5.40515H16.3896Z" fill="#383739"/>
</g>
</svg>
