<?xml version="1.0" encoding="UTF-8"?>
<svg width="24px" height="24px" viewBox="0 0 24 24" version="1.1" xmlns="http://www.w3.org/2000/svg" xmlns:xlink="http://www.w3.org/1999/xlink">
    <title>icon/effect</title>
    <g id="icon/effect" stroke="none" stroke-width="1" fill="none" fill-rule="evenodd">
        <path d="M4.60748698,7.18514479 C4.68974728,7.16729946 4.77572786,7.18364635 4.84569984,7.23043454 L4.84569984,7.23043454 L5.01625044,7.34379755 C5.25759678,7.50531191 5.33182704,7.82660707 5.18578887,8.07762061 C3.50025024,11.0091823 3.87723842,14.6900133 6.12204588,17.2190316 L6.12204588,17.2190316 L7.58969201,16.0484573 C7.91561066,15.7893419 8.33819153,16.2210323 8.0714848,16.541384 L8.0714848,16.541384 L2.22721672,23.5491412 C1.88669419,23.9553637 1.32843438,24.1051835 0.830279774,23.9240364 C0.332125167,23.7428893 0.000443256943,23.2694736 0.000443256943,22.7394054 L0.000443256943,22.7394054 L0.000443256943,22.7146072 C0.000349345008,22.3312569 0.174899606,21.9687437 0.474644818,21.7297661 L0.474644818,21.7297661 L5.29965797,17.8769419 C2.72038766,14.9357365 2.35939969,10.6568286 4.40945468,7.32507241 C4.45374887,7.25349562 4.52522668,7.20299012 4.60748698,7.18514479 Z M19.7225153,14.5149117 L19.7979773,14.5302027 L20.1461637,14.6435657 C20.2348173,14.6720655 20.3080513,14.7354234 20.3490079,14.8190551 C20.3899645,14.9026868 20.3951151,14.9993869 20.3632741,15.0868961 C19.7120405,16.8509701 18.5183747,18.3632067 16.9537804,19.4063304 L16.9537804,19.4063304 L18.6618168,21.9843268 C18.7923935,22.1815903 18.8040526,22.4346377 18.6921682,22.6430726 C18.5802839,22.8515074 18.3629443,22.9816322 18.126379,22.9818215 L18.126379,22.9818215 L17.8444897,22.9818215 C17.4905469,22.9824456 17.1682819,22.7779958 17.0180531,22.4575161 L17.0180531,22.4575161 L14.7715424,17.6785567 C14.6742945,17.471074 14.6014376,17.2530129 14.554432,17.0287437 C14.4744706,16.6451314 14.9830859,16.4330818 15.1996902,16.7595066 L15.1996902,16.7595066 L16.3727949,18.5308036 C17.7465017,17.6137605 18.7956943,16.2865071 19.3708417,14.7382036 C19.4344366,14.5655747 19.6228606,14.4738185 19.7979773,14.5302027 Z M8.001139,19.0434676 C8.06502829,18.9302211 8.20725904,18.8881118 8.3225029,18.9483236 C10.0956256,19.8839613 12.1584069,20.1096006 14.0918704,19.5794115 C14.2980624,19.5208301 14.5138089,19.6350619 14.5812545,19.8385269 L14.5812545,19.8385269 L14.6612159,20.077905 C14.6952747,20.1823958 14.6849922,20.2962823 14.6327682,20.3929827 C14.5805442,20.4896832 14.4909486,20.5607359 14.3848936,20.5895569 C12.183809,21.1977161 9.83344333,20.9405883 7.81591194,19.8709163 C7.75827019,19.8399527 7.71559332,19.7870024 7.69758006,19.7240989 C7.6795668,19.6611955 7.6877471,19.5936816 7.7202619,19.5369003 L7.7202619,19.5369003 Z M2.78239183,0 C3.30270835,0.000445061983 3.7889545,0.258828494 4.08049952,0.689793678 L4.08049952,0.689793678 L6.83461338,4.73847264 C7.42698339,4.31469574 8.06953666,3.96588111 8.74761419,3.69998648 C8.81046019,3.67450874 8.88167112,3.68039208 8.93948366,3.71583846 C8.99729619,3.75128483 9.03483863,3.81208101 9.04063733,3.87964661 C9.04489799,3.95954988 9.00634579,4.03569046 8.93942035,4.07955014 C8.22735894,4.57854982 7.81287543,4.9905029 7.34980778,5.49658777 L7.34980778,5.49658777 L9.66210955,8.8974781 L10.613043,10.3641121 C10.6694735,10.4504292 10.7786445,10.4854312 10.8747449,10.448018 C10.9708454,10.4106048 11.0276125,10.311001 11.0108257,10.2092501 L11.0108257,10.2092501 L10.767905,8.75779868 C10.7264652,8.5095908 10.8854947,8.27204463 11.1307678,8.21578178 C12.2574622,7.95757192 13.4406242,8.21438076 14.3588862,8.91645449 C15.2771481,9.61852822 15.8351712,10.6929738 15.8813865,11.8479529 L15.8813865,11.8479529 L17.7731318,12.2173948 C18.0676732,12.2750885 18.0140282,12.7118398 17.7139198,12.6961511 L17.7139198,12.6961511 L14.930453,12.5994889 C14.84693,12.5995543 14.7731047,12.6537993 14.7480864,12.7334873 C14.7230681,12.8131753 14.752641,12.8998825 14.8211387,12.9476753 L14.8211387,12.9476753 L15.3246932,13.2994043 C15.4830842,13.4094724 15.5354581,13.6198336 15.4471657,13.7913188 C14.7535918,15.1267407 13.3510038,15.9413184 11.847384,15.8819554 C9.80178897,15.8030062 8.15043404,14.1136949 8.11602027,12.0670876 C8.09986413,11.2118066 8.36772346,10.3753024 8.877678,9.68848875 L8.877678,9.68848875 L1.69076676,0.971176866 C1.54494734,0.794240677 1.51405713,0.549149113 1.61141326,0.341564191 C1.7087694,0.133979269 1.91696453,0.00101736256 2.14624314,0 L2.14624314,0 Z M20.8457869,1.09614036 C21.060173,1.07820988 21.2716087,1.15539079 21.424028,1.30721722 L21.424028,1.30721722 L21.9463076,1.83050897 C22.0854741,1.96966775 22.1627706,2.15898505 22.1607712,2.35578055 C22.1587718,2.55257605 22.0776449,2.74028383 21.9356798,2.8765864 L21.9356798,2.8765864 L18.6355004,6.04923245 C20.1093115,7.67984379 20.9214374,9.80183858 20.9128823,11.9997784 C20.9128823,12.1283239 20.9073154,12.2578816 20.9037728,12.3869333 L20.9037728,12.3869333 L24,12.3869333 L24,14.0509403 L19.2311623,13.0807756 C18.8166788,12.9942351 18.8784211,12.3869333 19.301002,12.3869333 L19.301002,12.3869333 L19.8506102,12.3869333 C19.8566832,12.2578816 19.8612379,12.12883 19.8612379,11.9997784 C19.8693788,10.073425 19.162473,8.2125679 17.8773852,6.77748858 L17.8773852,6.77748858 L16.3409116,8.25475031 C16.2006741,8.3870038 15.9832011,8.39198421 15.8370563,8.26628925 C15.6909115,8.14059429 15.6633001,7.9248238 15.7730844,7.76637842 L15.7730844,7.76637842 L20.3106413,1.40033684 C20.4357231,1.22530122 20.6314007,1.11407083 20.8457869,1.09614036 Z M13.8395718,3.20658627 C14.2352008,3.14236663 14.6079817,3.41102697 14.6722014,3.80665594 C14.736421,4.20228491 14.4677607,4.57506586 14.0721317,4.6392855 C13.6765027,4.70350514 13.3037218,4.4348448 13.2395021,4.03921583 C13.1752825,3.64358687 13.4439428,3.27080591 13.8395718,3.20658627 Z" id="Combined-Shape" fill="#FFFFFF"></path>
    </g>
</svg>