<?xml version="1.0" encoding="UTF-8"?>
<svg width="24px" height="24px" viewBox="0 0 24 24" version="1.1" xmlns="http://www.w3.org/2000/svg" xmlns:xlink="http://www.w3.org/1999/xlink">
    <title>icon/honooMark</title>
    <g id="icon/honooMark" stroke="none" stroke-width="1" fill="none" fill-rule="evenodd">
        <path d="M19.5699304,1 C21.8936752,4.6109515 21.4420309,10.3373766 17.8126337,12.2799562 C17.8153868,12.2800938 17.8180022,12.2800938 17.8206177,12.2802315 C17.7198546,12.3330908 17.6135854,12.3860877 17.4989192,12.4388094 C16.792339,12.7421998 16.2971959,13.4427233 16.2971959,14.2603907 C16.2971959,15.3563954 17.1856177,16.2448173 18.2816224,16.2448173 C19.2575925,16.2448173 20.0652111,15.5386499 20.2308094,14.6101707 C20.3502044,13.779507 20.0702824,12.9199074 20.0027659,12.7291457 L19.9918756,12.7 L20.0930325,12.9594182 C20.4134312,13.8515688 20.459461,14.6882434 20.3753085,15.4117673 L20.3463015,15.6253722 C20.3399694,15.6670815 20.3321231,15.7087908 20.3246898,15.7505001 L20.3246898,15.7505001 L20.3103737,15.8321292 L20.3103737,15.8321292 L20.29592,15.9006811 C20.0420852,17.1353039 19.4588433,17.9365904 19.4588433,17.9365904 L19.4588433,17.9365904 L19.2891004,18.2009206 C18.5914679,19.2456174 17.6433823,20.1397393 16.6794623,20.6781164 C16.5563992,20.7494214 16.4325102,20.8163215 16.3080706,20.8808814 C16.2687014,20.9012543 16.2290569,20.9203883 16.1895501,20.9399352 C16.1029655,20.9832963 16.0163808,21.025281 15.9292456,21.0654761 C15.8842326,21.0862619 15.8389442,21.1063594 15.7936559,21.1263193 C15.7087231,21.1637613 15.6233774,21.1995515 15.537894,21.2341028 C15.4948081,21.2514472 15.4518599,21.2692046 15.4086364,21.2858608 C15.3069098,21.3250923 15.2049078,21.3621214 15.1026306,21.3973609 C15.0770269,21.4061708 15.0515608,21.4159443 15.0259571,21.4246165 C14.8983514,21.4672894 14.7704704,21.5067962 14.6423141,21.5434123 C14.6073499,21.5533234 14.5723857,21.5619957 14.5375591,21.5714938 C14.4432658,21.5973728 14.3488348,21.6218753 14.2544039,21.6445883 C14.2089779,21.655463 14.1636896,21.6655118 14.118126,21.6755606 C14.0319543,21.6948322 13.9457826,21.7128649 13.8594733,21.7295211 C13.8139096,21.7381933 13.768346,21.7471409 13.7227824,21.7551248 C13.6295903,21.7716434 13.5362606,21.7863724 13.4429309,21.8000002 C13.414987,21.8041298 13.3871808,21.809636 13.3593746,21.8133527 L13.3593746,21.8133527 C12.5554727,21.9220997 11.7628584,21.9254034 10.9992891,21.8406083 L10.9992891,21.8406083 C10.9863496,21.83992 10.9794669,21.8388187 10.9721712,21.8379928 C10.9285347,21.8330373 10.8851736,21.8269805 10.8416748,21.8214743 C10.7795926,21.8134903 10.7173728,21.805644 10.6557036,21.7966965 C10.6102776,21.7899514 10.565127,21.7822428 10.5198387,21.7750847 L10.5198387,21.7750847 L10.3429527,21.745489 L10.3429527,21.745489 L10.2051606,21.7190594 C10.1481717,21.7079094 10.0910451,21.6967594 10.0343314,21.6847834 C9.98821719,21.6748723 9.94251592,21.6642729 9.89667699,21.6538112 C9.84106459,21.6410093 9.78545219,21.6282074 9.73025276,21.6145797 C9.68441383,21.603292 9.63898786,21.5913161 9.59342424,21.5793401 L9.59342424,21.5793401 L9.4315426,21.535566 C9.38611664,21.5227641 9.34110363,21.5094117 9.29609063,21.4960592 C9.24309366,21.4803666 9.19037201,21.464261 9.13778801,21.4476048 C9.09318797,21.4334264 9.04886324,21.4191103 9.00467616,21.4042437 C8.95278043,21.3868992 8.90116001,21.3692794 8.84995256,21.3512467 C8.8063161,21.3358294 8.76281729,21.3202744 8.71973145,21.3043065 C8.6687993,21.2854479 8.61814246,21.2660386 8.56803625,21.2464917 C8.52563868,21.2299731 8.48310345,21.2134546 8.44111884,21.1963854 C8.39115028,21.1758749 8.34173233,21.1549514 8.29231438,21.1338903 C8.2511557,21.1162705 8.21027233,21.0986508 8.16966427,21.080618 C8.12038398,21.058731 8.07206727,21.0361557 8.0236129,21.0134427 L8.0236129,21.0134427 L7.90509242,20.9572797 C7.85663805,20.9337407 7.80887196,20.9093759 7.76124352,20.8850111 C7.72366386,20.8657395 7.68580888,20.8470184 7.64877984,20.8271962 C7.60046312,20.8015925 7.55297234,20.7751628 7.50548155,20.7488708 C7.47037967,20.7291862 7.43472717,20.7099146 7.40003825,20.6900924 C7.35130857,20.6621485 7.30395544,20.6332411 7.256327,20.6044713 C7.22411586,20.585062 7.19149176,20.5662034 7.15983123,20.5463811 L7.15983123,20.5463811 L7.00538294,20.446444 C6.97991687,20.4297878 6.95390018,20.4135446 6.92884707,20.3966131 C6.91398039,20.3865643 6.89993963,20.3761026 6.88521061,20.3659161 C5.86643003,19.6852149 5.3751413,19.0405791 5.3751413,19.0405791 C5.3751413,19.0405791 6.1113173,19.5956019 7.12651886,19.3818245 C8.33113294,19.128265 8.79709325,18.1397684 8.93089337,17.7725063 C8.94493413,17.73121 8.95842426,17.6892254 8.97150144,17.6469655 C8.98210083,17.6122766 8.99283787,17.5775876 9.002749,17.5419351 C9.01568851,17.4955456 9.02725149,17.4477795 9.03881446,17.400151 L9.03881446,17.400151 L9.06414288,17.2920923 C9.07474227,17.2418484 9.08355216,17.1899527 9.0924997,17.1381946 C9.0988318,17.1022668 9.10543921,17.0668896 9.11080774,17.0302735 C9.11920466,16.9735599 9.12526145,16.9149191 9.13131825,16.8562783 C9.13475961,16.8226906 9.13943986,16.7899289 9.14219295,16.7557906 C9.14824975,16.6810442 9.1514158,16.6040954 9.15389358,16.5267336 L9.15389358,16.5267336 L9.15664667,16.4686434 C9.15829852,16.3707711 9.15678432,16.2706963 9.15224173,16.1685567 C9.15086518,16.1399246 9.14769913,16.1100535 9.14577197,16.0811461 C9.14122937,16.0066751 9.13627381,15.9319287 9.12801454,15.8552552 C9.11796577,15.7599983 9.10557687,15.6635025 9.08988426,15.5648043 C9.07832129,15.492811 9.06813486,15.421506 9.05932497,15.3510269 C9.05643423,15.3273504 9.05436941,15.3042244 9.05175398,15.2805478 L9.05175398,15.2805478 L9.03716261,15.1463348 L9.01929966,14.8768034 C8.93380311,12.9288845 9.87368271,11.6114284 10.5185998,10.9434691 L10.5185998,10.9434691 L10.689429,10.7744295 L10.838784,10.6388398 L10.9601953,10.5371132 L11.1001898,10.4308439 C9.0399157,10.6572855 7.48731117,11.1872551 6.35978358,11.9837238 C3.23254981,14.2287302 4.31974464,17.6760106 4.31974464,17.6760106 C3.17783842,16.2569183 3.01374964,14.2012217 3.00130072,13.2879196 L3.00080146,13.091572 C3.00236768,12.91898 3.00886133,12.8203875 3.00886133,12.8203875 L3.00886133,12.8203875 C3.08347004,10.6219083 3.95165665,8.06332508 6.52579484,6.12253501 C8.19870936,4.86120729 9.93095294,4.46063285 11.82673,4.23997276 L11.82673,4.23997276 L12.502751,4.16853011 L12.6325592,4.1576554 L12.9071798,4.143477 L13.3518037,4.13700724 L14.6746629,4.15214923 L15.2002276,4.14774428 L15.5533113,4.13563069 L15.9058443,4.11333067 C17.6632786,3.97264782 19.3152697,3.36641763 19.5699304,1 Z M19.6024169,3.98957932 C17.3272641,6.4147754 11.8179201,4.2256567 7.92518997,6.58973421 C4.39224461,8.73538632 4.2419065,12.0723835 4.23550914,12.3524979 L4.23522481,12.3713587 C5.28511529,11.0461593 6.52331706,9.92592743 9.80031887,9.47359491 C13.70062,8.93536602 15.6049317,8.53960948 15.6049317,8.53960948 C15.6049317,8.53960948 15.590607,8.56434426 15.5371261,8.61993515 L15.4811169,8.67528385 C15.2697203,8.87538818 14.7175767,9.31570526 13.3281271,10.1186437 C10.5603091,11.7180507 10.4098528,13.3652238 10.4098528,13.3652238 C12.2443736,10.9899963 16.1757847,12.4151328 18.2816224,10.1150646 C20.3873225,7.8148588 19.6024169,3.98957932 19.6024169,3.98957932 Z" id="Combined-Shape" fill="#FFFFFF"></path>
    </g>
</svg>