<?xml version="1.0" encoding="UTF-8"?>
<svg width="24px" height="24px" viewBox="0 0 24 24" version="1.1" xmlns="http://www.w3.org/2000/svg" xmlns:xlink="http://www.w3.org/1999/xlink">
    <title>icon/league</title>
    <g id="icon/league" stroke="none" stroke-width="1" fill="none" fill-rule="evenodd">
        <path d="M2.75862228,0.99984039 C1.63947129,0.99984039 0.800193563,1.70289024 0.43103473,2.45693205 C0.0618758976,3.21105662 0,4.00622949 0,4.58625741 C0,6.4796654 1.24181864,7.96212142 2.61207047,9.22419111 C3.89110017,10.4022332 5.35305135,11.4434751 6.37069332,12.4052412 C6.45645888,13.0223174 6.54370031,13.659973 6.62931415,14.3448837 C6.69869626,14.8999461 7.05992406,15.15716 7.33621111,15.3362774 C7.93117697,15.7244707 8.66057049,15.8996432 9.21552254,16.2155606 C9.3705378,16.3655469 9.58605241,16.4511194 9.80172977,16.4483332 L10.4827646,17.2931613 L10.4827646,18.0862652 L9.81035047,18.9310932 C9.37381228,18.8870105 8.97783688,18.9937416 8.637936,19.2241969 C8.42825312,19.406597 8.30396063,19.6175212 8.18103918,19.8362524 C7.54469399,20.0830939 7.12076823,20.6422391 6.85345221,21.1897152 C6.52702996,21.8656053 6.34481744,22.4576819 6.34483123,23.1724133 C6.34487537,23.6057377 6.73910732,24 7.17241792,24 L17.1034581,24 C17.5367687,24 17.9310007,23.6057377 17.9310448,23.1724133 C17.9310586,22.4388681 17.719304,21.8466811 17.3706996,21.1724738 C17.0571133,20.5750114 16.6704979,20.1374664 16.1120782,19.8707352 C15.999794,19.6165557 15.7995098,19.3964177 15.63794,19.2241969 C15.2171094,18.9245553 14.9585051,18.9310932 14.4655256,18.9310932 L13.7931114,18.0862652 L13.7931114,17.2931613 L14.4741462,16.4483332 C14.6910043,16.4483332 14.9067396,16.3600297 15.0603535,16.2069537 C15.6379952,15.8992846 16.2720342,15.6647465 16.7499958,15.3104015 C17.0005974,15.1222911 17.3092706,14.8362219 17.3706858,14.3448837 C17.457668,13.6490212 17.5559963,13.0060691 17.6551688,12.3793653 C18.6716521,11.4245786 20.1200667,10.3919435 21.3879295,9.22419111 C22.7581814,7.96212142 24,6.4796654 24,4.58625741 C24,4.00622949 23.9381241,3.21105662 23.5689653,2.45693205 C23.1998064,1.70286265 22.3605287,0.99984039 21.2413777,0.99984039 C20.5517222,0.99984039 19.9670404,1.40545559 19.6379285,1.83624204 C19.462505,2.06589735 19.3305739,2.30813197 19.2155145,2.54316659 C19.0752027,2.27878023 18.782066,2.10289047 18.4827554,2.10349737 C14.2265075,2.10349737 9.95660434,2.10349737 5.70688604,2.10349737 C5.30306788,2.14581463 4.96333527,2.52507002 4.9655063,2.93108405 C4.80726069,2.57723557 4.63782336,2.19726294 4.36205768,1.83624204 C3.83859531,1.37676591 3.58620896,0.99651742 2.75862228,0.99984039 Z M2.75862228,2.65522182 C3.17972045,2.79199431 3.38094815,3.43701537 3.56034687,3.82763629 C3.75396078,4.25006412 3.96467814,4.72934715 4.34483008,5.16385775 C4.59418195,5.44882343 4.95323319,5.70239599 5.37069274,5.84487883 C5.58024597,7.23144514 5.79136057,8.5462321 6.00000345,9.9052122 C5.22310645,9.27296356 4.42796668,8.64899078 3.73276077,8.00865938 C2.48232143,6.85698975 1.65517337,5.72733393 1.65517337,4.58625741 C1.65517337,4.15704337 1.73122858,3.56261545 1.9137942,3.18970489 C2.09635983,2.81679433 2.2225999,2.65522182 2.75862228,2.65522182 Z M21.2413915,2.65522182 C21.7774139,2.65522182 21.903654,2.81679433 22.0862196,3.18970489 C22.2687852,3.56261545 22.3448404,4.15704337 22.3448404,4.58625741 C22.3448404,5.72733393 21.5176924,6.85698975 20.267253,8.00865938 C19.6034375,8.62008042 18.8469488,9.21597042 18.1034587,9.81903284 C18.362405,8.46030102 18.6219776,7.1546451 18.8707005,5.75006498 C19.1859779,5.60228558 19.4543312,5.39337512 19.6551837,5.16385775 C20.0353357,4.72934715 20.246053,4.25006412 20.4396669,3.82763629 C20.6638739,3.4115257 20.8162051,2.81351157 21.2413915,2.65522182 Z M6.75000388,3.75867073 L17.5000101,3.75867073 C16.9692649,7.25563826 16.2690604,9.98623293 15.7586297,13.9828145 C15.2708171,14.3002216 14.660607,14.5027597 14.2327668,14.7931598 L10.077592,14.7931598 C9.44422336,14.4369114 8.86231682,14.2838078 8.24138405,13.9483318 C7.742741,10.0072536 7.24362347,7.26987275 6.75000388,3.75867073 Z M12.137938,5.13798187 C10.1671314,5.13798187 8.55172905,6.7533759 8.55172905,8.72419083 C8.55172905,10.6950058 10.1671314,12.3103998 12.137938,12.3103998 C14.1087447,12.3103998 15.724147,10.6950058 15.724147,8.72419083 C15.724147,6.7533759 14.1087447,5.13798187 12.137938,5.13798187 Z M12.137938,6.79315523 C13.2142228,6.79315523 14.0689736,7.64791435 14.0689736,8.72419083 C14.0689736,9.80046731 13.2142228,10.6552264 12.137938,10.6552264 C11.0616533,10.6552264 10.2069024,9.80046731 10.2069024,8.72419083 C10.2069024,7.64791435 11.0616533,6.79315523 12.137938,6.79315523 Z" id="Shape" fill="#FFFFFF"></path>
    </g>
</svg>